<svg id="svg" version="1.1" xmlns="http://www.w3.org/2000/svg" xmlns:xlink="http://www.w3.org/1999/xlink" width="400" height="68.57142857142857" viewBox="0, 0, 400,68.57142857142857"><g id="svgg"><path id="path0" d="M387.535 15.505 C 387.333 15.669,387.167 15.923,387.167 16.068 C 387.167 16.214,387.054 16.333,386.917 16.333 C 386.779 16.333,386.667 16.428,386.667 16.543 C 386.667 16.659,386.517 16.847,386.333 16.961 C 386.004 17.167,386.000 17.350,386.000 32.886 L 386.000 48.602 386.375 49.110 C 387.303 50.368,387.615 50.500,389.654 50.500 C 391.129 50.500,391.530 50.450,391.604 50.256 C 391.655 50.122,391.841 49.967,392.015 49.912 C 392.190 49.856,392.333 49.711,392.333 49.590 C 392.333 49.468,392.447 49.326,392.585 49.272 C 392.887 49.157,392.967 16.833,392.666 16.833 C 392.577 16.833,392.395 16.571,392.261 16.250 C 392.127 15.929,391.933 15.667,391.830 15.667 C 391.727 15.667,391.527 15.551,391.385 15.409 C 390.994 15.018,388.046 15.092,387.535 15.505 M237.548 16.000 C 237.500 16.184,237.321 16.333,237.147 16.333 C 236.900 16.333,236.833 16.456,236.833 16.917 C 236.833 17.324,236.758 17.500,236.583 17.500 C 236.363 17.500,236.333 19.341,236.333 33.066 C 236.333 46.748,236.364 48.643,236.583 48.727 C 236.721 48.780,236.833 48.981,236.833 49.174 C 236.833 49.368,237.053 49.745,237.321 50.013 C 238.297 50.989,242.500 50.656,242.500 49.603 C 242.500 49.476,242.650 49.333,242.833 49.285 C 243.072 49.223,243.167 49.058,243.167 48.703 C 243.167 48.430,243.279 48.114,243.417 48.000 C 243.620 47.832,243.667 47.295,243.667 45.146 C 243.667 43.009,243.711 42.500,243.896 42.500 C 244.023 42.500,244.233 42.338,244.365 42.141 C 244.641 41.724,245.500 41.816,245.500 42.262 C 245.500 42.558,246.650 43.665,246.958 43.666 C 247.073 43.666,247.167 43.814,247.167 43.993 C 247.167 44.382,247.930 45.138,248.458 45.273 C 248.674 45.329,248.833 45.498,248.833 45.671 C 248.833 46.078,249.005 46.500,249.171 46.500 C 249.410 46.500,250.667 47.713,250.667 47.944 C 250.667 48.066,250.779 48.167,250.917 48.167 C 251.054 48.167,251.167 48.274,251.167 48.405 C 251.167 48.537,251.317 48.692,251.500 48.750 C 251.683 48.808,251.833 48.963,251.833 49.095 C 251.833 49.226,251.946 49.333,252.083 49.333 C 252.221 49.333,252.333 49.405,252.333 49.493 C 252.333 49.581,252.539 49.844,252.790 50.077 C 253.337 50.584,257.333 50.753,257.333 50.269 C 257.333 50.143,257.483 50.000,257.667 49.952 C 257.850 49.904,258.000 49.745,258.000 49.599 C 258.000 49.453,258.112 49.333,258.250 49.333 C 258.458 49.333,258.500 49.009,258.500 47.417 C 258.500 45.824,258.458 45.500,258.250 45.500 C 258.111 45.500,258.000 45.352,258.000 45.167 C 258.000 44.981,257.889 44.833,257.750 44.833 C 257.612 44.833,257.500 44.762,257.500 44.674 C 257.500 44.586,257.087 44.111,256.583 43.619 C 256.079 43.127,255.667 42.592,255.667 42.430 C 255.667 42.268,255.517 42.096,255.333 42.048 C 255.150 42.000,255.000 41.857,255.000 41.731 C 255.000 41.604,254.887 41.500,254.750 41.500 C 254.612 41.500,254.500 41.385,254.500 41.245 C 254.500 41.104,254.387 40.946,254.250 40.894 C 254.112 40.841,254.000 40.693,254.000 40.566 C 254.000 40.438,253.880 40.333,253.734 40.333 C 253.588 40.333,253.430 40.183,253.382 40.000 C 253.334 39.817,253.191 39.667,253.064 39.667 C 252.937 39.667,252.833 39.554,252.833 39.417 C 252.833 39.279,252.721 39.167,252.583 39.167 C 252.446 39.167,252.333 39.088,252.333 38.992 C 252.333 38.766,251.567 38.000,251.341 38.000 C 251.245 38.000,251.167 37.887,251.167 37.750 C 251.167 37.612,251.017 37.350,250.833 37.167 C 250.463 36.796,250.385 36.168,250.708 36.164 C 250.962 36.160,251.667 35.441,251.667 35.185 C 251.667 35.083,251.782 35.000,251.922 35.000 C 252.062 35.000,252.220 34.887,252.273 34.750 C 252.326 34.612,252.473 34.500,252.601 34.500 C 252.729 34.500,252.833 34.429,252.833 34.342 C 252.833 34.136,253.578 33.333,253.769 33.333 C 253.850 33.333,254.064 33.112,254.245 32.843 C 254.425 32.574,254.706 32.318,254.870 32.276 C 255.033 32.233,255.167 32.078,255.167 31.932 C 255.167 31.786,255.242 31.667,255.333 31.667 C 255.602 31.667,257.414 29.770,257.364 29.542 C 257.339 29.427,257.435 29.333,257.576 29.333 C 257.877 29.333,257.866 29.378,257.916 28.042 C 257.947 27.225,257.888 26.922,257.644 26.641 C 257.473 26.444,257.333 26.219,257.333 26.141 C 257.333 26.064,257.221 26.000,257.083 26.000 C 256.946 26.000,256.833 25.915,256.833 25.811 C 256.833 25.166,256.007 24.833,254.403 24.833 L 252.822 24.833 252.239 25.417 C 251.918 25.738,251.546 26.000,251.411 26.000 C 251.277 26.000,251.167 26.104,251.167 26.232 C 251.167 26.360,251.054 26.508,250.917 26.560 C 250.779 26.613,250.667 26.771,250.667 26.911 C 250.667 27.052,250.562 27.167,250.434 27.167 C 250.307 27.167,250.159 27.279,250.106 27.417 C 250.054 27.554,249.896 27.667,249.755 27.667 C 249.611 27.667,249.500 27.812,249.500 28.000 C 249.500 28.222,249.389 28.333,249.167 28.333 C 248.983 28.333,248.830 28.427,248.826 28.542 C 248.821 28.656,248.630 28.900,248.401 29.083 C 247.583 29.737,247.230 30.095,247.121 30.379 C 247.060 30.537,246.933 30.667,246.839 30.667 C 246.744 30.667,246.667 30.779,246.667 30.917 C 246.667 31.054,246.554 31.167,246.417 31.167 C 246.094 31.167,245.500 31.760,245.500 32.083 C 245.500 32.221,245.385 32.333,245.245 32.333 C 245.104 32.333,244.946 32.446,244.894 32.583 C 244.841 32.721,244.731 32.833,244.649 32.833 C 244.567 32.833,244.331 33.002,244.125 33.208 L 243.750 33.583 243.707 25.952 C 243.669 19.373,243.629 18.308,243.415 18.226 C 243.261 18.167,243.167 17.911,243.167 17.550 C 243.167 17.109,243.086 16.948,242.833 16.882 C 242.619 16.826,242.500 16.654,242.500 16.403 C 242.500 15.795,242.020 15.667,239.745 15.667 C 237.776 15.667,237.630 15.689,237.548 16.000 M262.667 16.583 C 262.667 16.721,262.552 16.833,262.411 16.833 C 262.271 16.833,262.108 16.965,262.049 17.125 C 261.990 17.285,261.842 17.477,261.721 17.550 C 261.383 17.754,261.409 21.384,261.750 21.667 C 261.887 21.781,262.000 21.980,262.000 22.109 C 262.000 22.238,262.131 22.393,262.292 22.453 C 262.452 22.513,262.671 22.680,262.778 22.823 C 263.042 23.175,267.346 23.213,267.462 22.864 C 267.502 22.744,267.715 22.577,267.934 22.493 C 268.154 22.410,268.333 22.235,268.333 22.105 C 268.333 21.975,268.446 21.826,268.583 21.773 C 268.787 21.695,268.833 21.291,268.833 19.589 C 268.833 17.843,268.792 17.500,268.583 17.500 C 268.446 17.500,268.333 17.380,268.333 17.234 C 268.333 17.088,268.183 16.930,268.000 16.882 C 267.817 16.834,267.667 16.691,267.667 16.564 C 267.667 16.378,267.184 16.333,265.167 16.333 C 263.056 16.333,262.667 16.372,262.667 16.583 M331.912 17.111 C 331.774 17.250,331.456 17.418,331.208 17.485 C 330.890 17.570,330.711 17.763,330.604 18.136 C 330.520 18.428,330.349 18.667,330.224 18.667 C 329.794 18.667,329.906 49.173,330.337 49.286 C 330.518 49.333,330.668 49.457,330.670 49.561 C 330.684 50.495,334.508 50.992,335.333 50.167 C 335.517 49.983,335.770 49.833,335.897 49.833 C 336.167 49.833,336.328 49.330,336.331 48.479 C 336.332 48.146,336.446 47.781,336.583 47.667 C 336.793 47.492,336.833 46.795,336.833 43.313 L 336.833 39.167 341.292 39.164 C 345.929 39.162,346.500 39.114,346.500 38.731 C 346.500 38.581,346.693 38.500,347.051 38.500 C 347.355 38.500,347.749 38.390,347.926 38.255 C 348.104 38.121,348.381 38.008,348.542 38.005 C 348.702 38.002,348.970 37.863,349.138 37.696 C 349.305 37.528,349.568 37.343,349.721 37.284 C 349.874 37.225,350.000 37.100,350.000 37.005 C 350.000 36.809,350.603 36.168,350.792 36.164 C 351.082 36.157,351.667 35.336,351.667 34.935 C 351.667 34.655,351.758 34.500,351.922 34.500 C 352.062 34.500,352.225 34.369,352.284 34.208 C 352.343 34.048,352.491 33.857,352.612 33.783 C 352.734 33.710,352.833 33.429,352.833 33.158 C 352.833 32.854,352.920 32.667,353.061 32.667 C 353.315 32.667,353.500 31.649,353.500 30.245 C 353.500 29.620,353.572 29.341,353.750 29.273 C 354.089 29.143,354.110 26.915,353.775 26.717 C 353.626 26.628,353.514 26.076,353.447 25.085 C 353.374 24.023,353.270 23.532,353.089 23.400 C 352.948 23.297,352.833 23.121,352.833 23.008 C 352.833 22.895,352.683 22.612,352.500 22.379 C 352.317 22.146,352.167 21.853,352.167 21.728 C 352.167 21.602,352.064 21.500,351.938 21.500 C 351.811 21.500,351.665 21.281,351.611 21.013 C 351.553 20.722,351.376 20.483,351.169 20.417 C 350.980 20.357,350.695 20.107,350.537 19.862 C 350.125 19.223,349.360 18.500,349.095 18.500 C 348.971 18.500,348.826 18.387,348.773 18.250 C 348.720 18.112,348.534 18.000,348.359 18.000 C 348.184 18.000,347.947 17.887,347.833 17.750 C 347.719 17.612,347.503 17.500,347.352 17.500 C 347.202 17.500,346.799 17.350,346.457 17.167 C 345.616 16.716,332.358 16.665,331.912 17.111 M151.542 17.446 C 151.335 17.489,151.167 17.630,151.167 17.762 C 151.167 17.893,151.022 18.000,150.845 18.000 C 149.957 18.000,149.996 17.258,150.002 33.925 C 150.007 49.344,150.020 49.833,150.415 49.833 C 150.532 49.833,150.667 49.984,150.716 50.169 C 150.832 50.615,169.708 50.694,169.957 50.250 C 170.071 50.045,170.478 49.896,171.059 49.846 C 171.138 49.839,171.159 49.721,171.106 49.583 C 171.032 49.391,171.143 49.333,171.589 49.333 C 171.991 49.333,172.167 49.258,172.167 49.083 C 172.167 48.944,172.315 48.833,172.500 48.833 C 172.683 48.833,172.970 48.696,173.138 48.529 C 173.305 48.362,173.568 48.176,173.721 48.117 C 173.874 48.059,174.000 47.867,174.000 47.692 C 174.000 47.517,174.112 47.281,174.250 47.167 C 174.387 47.053,174.500 46.865,174.500 46.749 C 174.500 46.633,174.655 46.498,174.844 46.449 C 175.033 46.400,175.174 46.260,175.157 46.138 C 175.088 45.626,175.182 45.333,175.417 45.333 C 175.610 45.333,175.667 45.115,175.667 44.367 C 175.667 43.835,175.746 43.320,175.843 43.223 C 176.090 42.977,176.100 39.200,175.855 38.955 C 175.749 38.849,175.667 38.233,175.667 37.550 C 175.667 36.580,175.616 36.333,175.417 36.333 C 175.279 36.333,175.167 36.189,175.167 36.014 C 175.167 35.517,174.987 35.167,174.732 35.167 C 174.604 35.167,174.500 35.054,174.500 34.917 C 174.500 34.779,174.387 34.667,174.250 34.667 C 174.112 34.667,174.000 34.551,174.000 34.409 C 174.000 34.149,173.511 33.631,172.829 33.167 C 172.627 33.029,172.290 32.785,172.079 32.625 C 171.869 32.465,171.605 32.333,171.493 32.333 C 171.380 32.333,171.504 32.165,171.767 31.958 C 172.532 31.360,172.833 31.018,172.833 30.750 C 172.833 30.612,172.941 30.500,173.072 30.500 C 173.203 30.500,173.356 30.357,173.412 30.182 C 173.467 30.007,173.622 29.822,173.756 29.771 C 174.116 29.633,174.121 21.703,173.762 21.565 C 173.631 21.514,173.447 21.254,173.354 20.987 C 173.260 20.719,173.105 20.500,173.009 20.500 C 172.912 20.500,172.833 20.391,172.833 20.258 C 172.833 19.988,172.075 19.167,171.826 19.167 C 171.738 19.167,171.667 19.058,171.667 18.924 C 171.667 18.779,171.433 18.638,171.083 18.572 C 170.749 18.510,170.500 18.364,170.500 18.231 C 170.500 18.083,170.311 18.000,169.971 18.000 C 169.681 18.000,169.298 17.869,169.121 17.708 C 168.810 17.427,152.798 17.188,151.542 17.446 M344.074 23.422 C 344.251 23.557,344.530 23.667,344.693 23.667 C 344.888 23.667,344.957 23.752,344.894 23.917 C 344.827 24.090,344.905 24.167,345.149 24.167 C 345.345 24.167,345.500 24.274,345.500 24.408 C 345.500 24.541,345.616 24.715,345.758 24.795 C 345.900 24.874,346.026 25.121,346.037 25.344 C 346.049 25.568,346.176 25.889,346.321 26.059 C 346.718 26.527,346.696 29.506,346.292 29.954 C 346.131 30.131,346.000 30.477,346.000 30.721 C 346.000 31.006,345.910 31.167,345.750 31.167 C 345.611 31.167,345.500 31.315,345.500 31.500 C 345.500 31.685,345.389 31.833,345.250 31.833 C 345.113 31.833,345.000 31.946,345.000 32.083 C 345.000 32.235,344.845 32.333,344.604 32.333 C 344.386 32.333,344.114 32.446,344.000 32.583 C 343.828 32.791,343.203 32.833,340.313 32.833 L 336.833 32.833 336.833 28.000 L 336.833 23.167 340.292 23.172 C 343.068 23.176,343.814 23.226,344.074 23.422 M164.152 23.899 C 164.258 24.027,164.598 24.179,164.907 24.237 C 165.215 24.295,165.510 24.453,165.562 24.588 C 165.614 24.723,165.806 24.833,165.989 24.833 C 166.357 24.833,166.667 25.288,166.667 25.828 C 166.667 26.020,166.779 26.220,166.917 26.273 C 167.511 26.501,166.872 28.804,166.208 28.826 C 166.094 28.830,166.000 28.943,166.000 29.077 C 166.000 29.220,165.725 29.395,165.333 29.500 C 164.967 29.599,164.667 29.752,164.667 29.840 C 164.667 29.937,163.235 30.000,161.000 30.000 L 157.333 30.000 157.333 26.833 L 157.333 23.667 160.646 23.667 C 163.277 23.667,163.999 23.715,164.152 23.899 M187.894 24.583 C 187.829 24.752,187.564 24.833,187.075 24.833 C 186.678 24.833,186.306 24.909,186.248 25.003 C 186.191 25.096,185.887 25.279,185.572 25.411 C 185.257 25.542,185.000 25.728,185.000 25.825 C 185.000 25.921,184.773 26.000,184.495 26.000 C 184.199 26.000,183.950 26.104,183.894 26.250 C 183.841 26.387,183.712 26.500,183.606 26.500 C 183.501 26.500,183.041 26.878,182.583 27.340 C 182.125 27.802,181.580 28.251,181.371 28.337 C 181.141 28.433,180.953 28.691,180.892 28.997 C 180.837 29.274,180.689 29.500,180.563 29.500 C 180.436 29.500,180.333 29.575,180.333 29.667 C 180.333 29.758,180.183 29.983,180.000 30.167 C 179.817 30.350,179.667 30.650,179.667 30.833 C 179.667 31.019,179.556 31.167,179.417 31.167 C 179.240 31.167,179.167 31.346,179.167 31.779 C 179.167 32.115,179.056 32.512,178.922 32.661 C 178.787 32.810,178.641 33.298,178.597 33.746 C 178.548 34.242,178.416 34.617,178.259 34.705 C 177.887 34.913,177.874 40.580,178.245 41.108 C 178.379 41.301,178.540 41.774,178.602 42.160 C 178.663 42.546,178.816 42.901,178.940 42.949 C 179.084 43.004,179.167 43.305,179.167 43.773 C 179.167 44.275,179.247 44.541,179.417 44.606 C 179.554 44.659,179.667 44.814,179.667 44.950 C 179.667 45.086,179.817 45.237,180.000 45.285 C 180.183 45.333,180.333 45.504,180.333 45.666 C 180.333 45.827,180.446 46.053,180.583 46.167 C 180.721 46.281,180.833 46.515,180.833 46.687 C 180.833 46.862,180.950 47.000,181.099 47.000 C 181.245 47.000,181.404 47.150,181.452 47.333 C 181.500 47.517,181.643 47.667,181.769 47.667 C 181.896 47.667,182.000 47.779,182.000 47.917 C 182.000 48.054,182.141 48.167,182.314 48.167 C 182.488 48.167,182.667 48.316,182.715 48.500 C 182.768 48.701,182.942 48.833,183.156 48.833 C 183.351 48.833,183.554 48.946,183.606 49.083 C 183.659 49.221,183.839 49.333,184.007 49.333 C 184.174 49.333,184.358 49.483,184.417 49.667 C 184.475 49.850,184.662 50.000,184.833 50.000 C 185.003 50.000,185.255 50.112,185.393 50.250 C 185.553 50.410,185.964 50.500,186.534 50.500 C 187.225 50.500,187.491 50.576,187.717 50.840 C 188.201 51.405,195.000 51.303,195.000 50.731 C 195.000 50.558,195.271 50.500,196.075 50.500 C 196.790 50.500,197.195 50.426,197.283 50.279 C 197.357 50.158,197.548 50.010,197.708 49.951 C 197.869 49.892,198.000 49.729,198.000 49.589 C 198.000 49.415,198.163 49.333,198.505 49.333 C 198.801 49.333,199.050 49.229,199.106 49.083 C 199.159 48.946,199.289 48.833,199.394 48.833 C 199.500 48.833,199.680 48.683,199.795 48.500 C 199.909 48.317,200.152 48.167,200.335 48.167 C 200.517 48.167,200.667 48.103,200.667 48.024 C 200.667 47.946,200.854 47.680,201.083 47.432 C 201.313 47.185,201.500 46.874,201.500 46.741 C 201.500 46.609,201.612 46.500,201.750 46.500 C 201.887 46.500,202.000 46.385,202.000 46.245 C 202.000 46.104,202.112 45.946,202.250 45.894 C 202.387 45.841,202.500 45.710,202.500 45.603 C 202.500 45.495,202.650 45.279,202.833 45.122 C 203.045 44.940,203.167 44.630,203.167 44.269 C 203.167 43.919,203.262 43.666,203.417 43.606 C 203.562 43.551,203.667 43.301,203.667 43.014 C 203.667 42.724,203.782 42.452,203.943 42.362 C 204.134 42.255,204.244 41.906,204.299 41.229 C 204.342 40.690,204.480 40.102,204.606 39.921 C 204.933 39.449,204.916 36.412,204.582 35.773 C 204.445 35.510,204.332 35.060,204.331 34.773 C 204.328 33.999,204.158 33.500,203.897 33.500 C 203.745 33.500,203.667 33.302,203.667 32.917 C 203.667 32.509,203.591 32.333,203.417 32.333 C 203.232 32.333,203.167 32.140,203.167 31.589 C 203.167 31.016,203.090 30.804,202.833 30.667 C 202.650 30.569,202.500 30.381,202.500 30.250 C 202.500 30.118,202.237 29.749,201.917 29.428 C 201.596 29.107,201.333 28.738,201.333 28.608 C 201.333 28.478,201.181 28.332,200.995 28.284 C 200.809 28.235,200.678 28.103,200.704 27.990 C 200.729 27.878,200.506 27.719,200.208 27.638 C 199.828 27.534,199.667 27.392,199.667 27.159 C 199.667 26.945,199.461 26.730,199.083 26.550 C 198.762 26.397,198.500 26.210,198.500 26.136 C 198.500 26.061,198.279 26.000,198.008 26.000 C 197.731 26.000,197.452 25.884,197.368 25.734 C 197.286 25.588,197.019 25.456,196.774 25.442 C 196.513 25.427,196.291 25.296,196.237 25.125 C 196.165 24.900,195.959 24.833,195.340 24.833 C 194.779 24.833,194.507 24.758,194.440 24.583 C 194.359 24.373,193.837 24.333,191.167 24.333 C 188.496 24.333,187.974 24.373,187.894 24.583 M216.000 24.583 C 215.886 24.721,215.548 24.833,215.250 24.833 C 214.952 24.833,214.614 24.946,214.500 25.083 C 214.386 25.221,214.199 25.333,214.085 25.333 C 213.971 25.333,213.688 25.483,213.455 25.667 C 213.221 25.850,212.836 26.000,212.597 26.000 C 212.359 26.000,212.035 26.150,211.878 26.333 C 211.721 26.517,211.497 26.667,211.380 26.667 C 211.262 26.667,211.167 26.779,211.167 26.917 C 211.167 27.054,211.054 27.167,210.917 27.167 C 210.779 27.167,210.667 27.270,210.667 27.397 C 210.667 27.524,210.517 27.667,210.333 27.715 C 210.150 27.763,210.000 27.922,210.000 28.068 C 210.000 28.214,209.887 28.333,209.750 28.333 C 209.612 28.333,209.500 28.411,209.500 28.505 C 209.500 28.600,209.237 28.918,208.917 29.212 C 208.596 29.507,208.333 29.871,208.333 30.023 C 208.333 30.174,208.230 30.337,208.104 30.386 C 207.978 30.434,207.826 30.734,207.767 31.053 C 207.707 31.372,207.547 31.725,207.412 31.837 C 207.277 31.949,207.167 32.249,207.167 32.503 C 207.167 32.766,207.056 33.007,206.909 33.063 C 206.767 33.118,206.667 33.257,206.687 33.373 C 206.743 33.703,206.474 34.895,206.292 35.125 C 206.033 35.451,205.939 38.806,206.164 39.667 C 206.272 40.079,206.440 40.867,206.537 41.417 C 206.634 41.967,206.815 42.535,206.940 42.680 C 207.065 42.825,207.167 43.098,207.167 43.287 C 207.167 43.476,207.269 43.670,207.393 43.718 C 207.518 43.766,207.667 44.103,207.725 44.468 C 207.784 44.832,207.944 45.174,208.082 45.227 C 208.220 45.280,208.333 45.431,208.333 45.563 C 208.333 45.695,208.676 46.155,209.094 46.586 C 209.513 47.016,209.923 47.548,210.007 47.767 C 210.090 47.987,210.273 48.167,210.413 48.167 C 210.552 48.167,210.667 48.243,210.667 48.337 C 210.667 48.431,210.873 48.598,211.125 48.708 C 211.377 48.819,211.643 49.005,211.717 49.121 C 211.790 49.238,211.996 49.333,212.175 49.333 C 212.354 49.333,212.500 49.410,212.500 49.504 C 212.500 49.597,212.706 49.764,212.958 49.875 C 213.210 49.986,213.477 50.172,213.550 50.288 C 213.633 50.421,214.052 50.500,214.667 50.500 C 215.430 50.500,215.687 50.565,215.813 50.792 C 215.961 51.055,216.318 51.083,219.500 51.083 C 222.682 51.083,223.039 51.055,223.187 50.792 C 223.311 50.569,223.567 50.500,224.264 50.500 C 224.922 50.500,225.204 50.430,225.273 50.250 C 225.326 50.112,225.505 50.000,225.671 50.000 C 226.151 50.000,226.500 49.817,226.500 49.566 C 226.500 49.438,226.650 49.333,226.833 49.333 C 227.017 49.333,227.167 49.230,227.167 49.104 C 227.167 48.978,227.392 48.830,227.667 48.775 C 227.960 48.716,228.167 48.570,228.167 48.421 C 228.167 48.278,228.312 48.167,228.500 48.167 C 228.683 48.167,228.833 48.087,228.833 47.991 C 228.833 47.894,229.208 47.455,229.667 47.016 C 230.256 46.451,230.500 46.087,230.500 45.775 C 230.500 45.532,230.594 45.333,230.708 45.332 C 230.951 45.331,231.667 44.145,231.667 43.743 C 231.667 43.593,231.817 43.279,232.000 43.045 C 232.264 42.710,232.333 42.369,232.333 41.412 C 232.333 40.490,232.393 40.179,232.583 40.106 C 232.937 39.971,232.951 35.742,232.599 35.346 C 232.461 35.191,232.334 34.577,232.291 33.849 C 232.237 32.958,232.140 32.559,231.942 32.414 C 231.790 32.304,231.667 32.019,231.667 31.782 C 231.667 31.544,231.567 31.290,231.446 31.217 C 231.324 31.143,231.177 30.952,231.118 30.792 C 231.059 30.631,230.896 30.500,230.755 30.500 C 230.583 30.500,230.500 30.338,230.500 30.000 C 230.500 29.667,230.417 29.500,230.250 29.500 C 230.112 29.500,230.000 29.390,230.000 29.256 C 230.000 28.993,228.738 27.667,228.487 27.667 C 228.402 27.667,228.333 27.554,228.333 27.417 C 228.333 27.279,228.192 27.167,228.019 27.167 C 227.846 27.167,227.667 27.018,227.618 26.833 C 227.570 26.650,227.420 26.500,227.283 26.500 C 227.147 26.500,226.992 26.387,226.940 26.250 C 226.880 26.094,226.626 26.000,226.264 26.000 C 225.944 26.000,225.623 25.904,225.550 25.788 C 225.302 25.393,224.506 24.994,223.761 24.892 C 223.353 24.836,222.980 24.688,222.932 24.562 C 222.796 24.209,216.294 24.229,216.000 24.583 M283.833 24.583 C 283.833 24.751,283.666 24.833,283.328 24.833 C 283.042 24.833,282.783 24.937,282.731 25.073 C 282.680 25.205,282.426 25.360,282.167 25.417 C 281.907 25.474,281.653 25.628,281.602 25.760 C 281.552 25.892,281.357 26.000,281.170 26.000 C 280.983 26.000,280.702 26.150,280.545 26.333 C 280.388 26.517,280.169 26.667,280.059 26.667 C 279.948 26.667,279.823 26.798,279.782 26.958 C 279.740 27.119,279.697 26.969,279.686 26.625 C 279.672 26.183,279.592 26.000,279.411 26.000 C 279.271 26.000,279.113 25.887,279.060 25.750 C 279.008 25.613,278.860 25.500,278.732 25.500 C 278.604 25.500,278.500 25.396,278.500 25.268 C 278.500 24.914,278.113 24.833,276.417 24.833 L 274.861 24.833 274.151 25.458 C 273.760 25.802,273.303 26.216,273.135 26.377 C 272.642 26.850,272.680 48.680,273.174 49.174 C 273.353 49.353,273.500 49.577,273.500 49.671 C 273.500 49.765,273.731 49.888,274.014 49.945 C 274.297 50.001,274.568 50.149,274.615 50.274 C 274.750 50.623,278.500 50.600,278.500 50.250 C 278.500 50.112,278.612 50.000,278.750 50.000 C 279.133 50.000,279.667 49.381,279.667 48.937 C 279.667 48.719,279.776 48.450,279.909 48.340 C 280.112 48.171,280.159 46.965,280.200 40.765 L 280.250 33.391 280.781 32.860 C 281.073 32.568,281.360 32.180,281.417 31.998 C 281.475 31.816,281.625 31.667,281.749 31.667 C 281.874 31.667,282.076 31.566,282.199 31.444 C 282.322 31.321,282.756 31.176,283.163 31.122 C 283.571 31.067,283.991 30.905,284.096 30.761 C 284.338 30.430,285.320 30.420,285.565 30.747 C 285.667 30.882,286.045 31.039,286.405 31.095 C 287.122 31.206,287.820 31.630,287.828 31.958 C 287.831 32.073,287.946 32.167,288.083 32.167 C 288.271 32.167,288.333 32.368,288.333 32.980 C 288.333 33.499,288.424 33.867,288.583 34.000 C 288.799 34.179,288.833 35.224,288.833 41.522 C 288.833 48.630,288.843 48.845,289.167 49.122 C 289.350 49.279,289.500 49.498,289.500 49.609 C 289.500 49.720,289.643 49.856,289.818 49.912 C 289.993 49.967,290.178 50.122,290.229 50.256 C 290.369 50.620,294.300 50.614,294.440 50.250 C 294.492 50.112,294.635 50.000,294.757 50.000 C 294.878 50.000,295.023 49.857,295.078 49.682 C 295.134 49.507,295.289 49.322,295.423 49.271 C 295.795 49.128,295.789 31.642,295.417 31.333 C 295.243 31.190,295.167 30.807,295.167 30.089 C 295.167 29.263,295.099 28.990,294.833 28.750 C 294.650 28.584,294.500 28.308,294.500 28.136 C 294.500 27.964,294.387 27.780,294.250 27.727 C 294.112 27.674,294.000 27.554,294.000 27.459 C 294.000 27.364,293.869 27.191,293.708 27.073 C 293.548 26.956,293.407 26.779,293.396 26.680 C 293.384 26.581,293.366 26.387,293.354 26.250 C 293.343 26.112,293.277 26.009,293.208 26.020 C 292.761 26.090,292.333 25.964,292.333 25.761 C 292.333 25.630,292.190 25.477,292.015 25.422 C 291.841 25.366,291.655 25.211,291.604 25.077 C 291.550 24.936,291.293 24.833,290.993 24.833 C 290.709 24.833,290.364 24.721,290.226 24.583 C 290.022 24.379,289.413 24.333,286.905 24.333 C 284.286 24.333,283.833 24.370,283.833 24.583 M307.894 24.583 C 307.834 24.738,307.581 24.833,307.232 24.833 C 306.841 24.833,306.667 24.910,306.667 25.083 C 306.667 25.235,306.512 25.333,306.272 25.333 C 306.056 25.333,305.688 25.483,305.455 25.667 C 305.221 25.850,304.896 26.000,304.732 26.000 C 304.568 26.000,304.082 26.375,303.651 26.833 C 303.221 27.292,302.763 27.667,302.634 27.667 C 302.308 27.667,302.000 28.009,302.000 28.372 C 302.000 28.540,301.887 28.720,301.750 28.773 C 301.612 28.826,301.500 29.006,301.500 29.173 C 301.500 29.341,301.350 29.525,301.167 29.583 C 300.983 29.642,300.833 29.764,300.833 29.856 C 300.833 29.949,300.721 30.136,300.583 30.274 C 300.446 30.411,300.333 30.653,300.333 30.810 C 300.333 30.967,300.183 31.390,300.000 31.750 C 299.817 32.110,299.667 32.642,299.667 32.934 C 299.667 33.252,299.566 33.503,299.417 33.560 C 299.229 33.632,299.165 33.939,299.161 34.786 C 299.158 35.515,299.069 36.032,298.911 36.240 C 298.568 36.695,298.571 39.048,298.917 39.393 C 299.086 39.563,299.167 39.983,299.167 40.701 C 299.167 41.327,299.260 41.893,299.395 42.088 C 299.521 42.269,299.676 42.654,299.739 42.944 C 299.802 43.235,299.962 43.514,300.094 43.564 C 300.246 43.623,300.333 43.895,300.333 44.308 C 300.333 44.683,300.439 45.047,300.583 45.167 C 300.721 45.281,300.833 45.472,300.833 45.593 C 300.833 45.713,300.983 45.858,301.167 45.917 C 301.350 45.975,301.500 46.130,301.500 46.261 C 301.500 46.393,301.612 46.500,301.750 46.500 C 301.968 46.500,302.096 46.930,302.015 47.389 C 302.001 47.466,302.143 47.568,302.329 47.617 C 302.515 47.666,302.667 47.809,302.667 47.936 C 302.667 48.080,302.850 48.167,303.155 48.167 C 303.532 48.167,303.656 48.251,303.697 48.536 C 303.727 48.746,303.966 49.016,304.250 49.161 C 304.525 49.302,304.810 49.510,304.883 49.624 C 304.956 49.738,305.311 49.879,305.671 49.937 C 306.032 49.994,306.413 50.145,306.517 50.271 C 306.622 50.397,306.920 50.500,307.179 50.500 C 307.454 50.500,307.718 50.621,307.813 50.792 C 308.087 51.282,313.672 51.328,314.156 50.844 C 314.352 50.648,314.717 50.500,315.005 50.500 C 315.301 50.500,315.550 50.396,315.606 50.250 C 315.659 50.112,315.901 50.000,316.144 50.000 C 316.443 50.000,316.749 49.811,317.085 49.420 C 317.359 49.101,317.677 48.839,317.792 48.837 C 318.098 48.832,318.061 49.941,317.750 50.060 C 317.579 50.126,317.500 50.394,317.500 50.911 C 317.500 51.479,317.436 51.667,317.245 51.667 C 317.104 51.667,316.941 51.792,316.883 51.946 C 316.696 52.432,316.181 52.833,315.745 52.833 C 315.513 52.833,315.280 52.946,315.227 53.083 C 315.163 53.249,314.899 53.334,314.441 53.336 C 313.508 53.339,313.000 53.492,313.000 53.769 C 313.000 54.151,311.571 54.071,311.167 53.667 C 310.935 53.435,310.611 53.333,310.104 53.333 C 309.659 53.333,309.293 53.236,309.167 53.083 C 309.037 52.927,308.670 52.833,308.186 52.833 C 307.594 52.833,307.365 52.755,307.205 52.500 C 307.091 52.317,306.819 52.167,306.602 52.167 C 306.385 52.167,306.114 52.054,306.000 51.917 C 305.739 51.602,304.279 51.579,303.970 51.884 C 303.849 52.004,303.619 52.152,303.458 52.212 C 303.298 52.273,303.167 52.438,303.167 52.578 C 303.167 52.718,303.028 52.833,302.859 52.833 C 301.934 52.833,301.505 56.936,302.358 57.627 C 302.555 57.786,302.855 58.048,303.025 58.208 C 303.195 58.369,303.550 58.500,303.816 58.500 C 304.090 58.500,304.339 58.607,304.394 58.750 C 304.459 58.920,304.725 59.000,305.225 59.000 C 305.821 59.000,305.978 59.063,306.048 59.333 C 306.122 59.615,306.276 59.667,307.047 59.667 C 307.655 59.667,308.029 59.750,308.167 59.917 C 308.470 60.283,315.443 60.287,315.926 59.922 C 316.104 59.787,316.456 59.675,316.708 59.672 C 316.960 59.669,317.317 59.517,317.500 59.333 C 317.702 59.131,318.056 59.000,318.399 59.000 C 318.748 59.000,319.001 58.904,319.060 58.750 C 319.115 58.609,319.363 58.500,319.631 58.500 C 320.090 58.500,320.833 57.880,320.833 57.499 C 320.833 57.408,320.983 57.333,321.167 57.333 C 321.350 57.333,321.500 57.254,321.500 57.158 C 321.500 57.062,321.725 56.904,322.000 56.808 C 322.318 56.697,322.500 56.519,322.500 56.318 C 322.500 56.145,322.650 55.909,322.833 55.795 C 323.017 55.680,323.167 55.455,323.167 55.293 C 323.167 55.132,323.279 55.000,323.417 55.000 C 323.554 55.000,323.667 54.887,323.667 54.750 C 323.667 54.612,323.817 54.350,324.000 54.167 C 324.264 53.903,324.333 53.611,324.333 52.768 C 324.333 51.974,324.397 51.678,324.583 51.606 C 324.946 51.467,324.965 26.207,324.602 26.067 C 324.475 26.019,324.326 25.757,324.272 25.485 C 324.218 25.214,324.041 24.942,323.878 24.880 C 323.716 24.819,323.484 24.671,323.363 24.551 C 323.091 24.282,319.667 24.238,319.667 24.504 C 319.667 24.597,319.481 24.759,319.253 24.862 C 319.026 24.966,318.795 25.192,318.740 25.364 C 318.537 26.003,317.900 26.531,317.668 26.251 C 317.553 26.113,317.326 26.000,317.164 26.000 C 317.002 26.000,316.829 25.895,316.779 25.766 C 316.730 25.637,316.465 25.482,316.192 25.422 C 315.918 25.362,315.653 25.205,315.602 25.073 C 315.541 24.913,315.259 24.833,314.755 24.833 C 314.195 24.833,314.000 24.769,314.000 24.583 C 314.000 24.370,313.555 24.333,310.995 24.333 C 308.477 24.333,307.974 24.374,307.894 24.583 M364.167 24.583 C 364.053 24.721,363.789 24.833,363.581 24.833 C 363.373 24.833,363.163 24.936,363.114 25.062 C 363.066 25.188,362.683 25.343,362.263 25.406 C 361.763 25.481,361.500 25.603,361.500 25.760 C 361.500 25.892,361.357 26.000,361.182 26.000 C 361.007 26.000,360.434 26.412,359.909 26.917 C 359.385 27.421,358.890 27.833,358.811 27.833 C 358.732 27.833,358.667 27.929,358.667 28.046 C 358.667 28.163,358.517 28.388,358.333 28.545 C 358.150 28.702,358.000 28.973,358.000 29.147 C 358.000 29.322,357.887 29.508,357.750 29.560 C 357.613 29.613,357.500 29.841,357.500 30.067 C 357.500 30.331,357.381 30.515,357.167 30.583 C 356.960 30.649,356.833 30.836,356.833 31.074 C 356.833 31.286,356.721 31.553,356.583 31.667 C 356.408 31.812,356.333 32.198,356.333 32.960 C 356.333 33.803,356.268 34.095,356.042 34.260 C 355.781 34.450,355.750 34.818,355.750 37.667 C 355.750 40.516,355.781 40.883,356.042 41.073 C 356.268 41.239,356.333 41.531,356.333 42.373 C 356.333 43.135,356.408 43.521,356.583 43.667 C 356.721 43.781,356.833 44.014,356.833 44.186 C 356.833 44.357,356.983 44.591,357.167 44.705 C 357.350 44.820,357.500 45.085,357.500 45.295 C 357.500 45.505,357.613 45.720,357.750 45.773 C 357.887 45.826,358.000 46.011,358.000 46.184 C 358.000 46.358,358.107 46.500,358.239 46.500 C 358.370 46.500,358.530 46.666,358.595 46.869 C 358.729 47.292,359.554 48.167,359.819 48.167 C 359.917 48.167,360.091 48.317,360.205 48.500 C 360.320 48.683,360.508 48.833,360.623 48.833 C 360.739 48.833,360.833 48.946,360.833 49.083 C 360.833 49.221,360.946 49.333,361.083 49.333 C 361.221 49.333,361.483 49.483,361.667 49.667 C 361.873 49.873,362.222 50.000,362.583 50.000 C 362.991 50.000,363.167 50.075,363.167 50.250 C 363.167 50.425,363.343 50.500,363.750 50.500 C 364.134 50.500,364.333 50.578,364.333 50.729 C 364.333 51.302,369.999 51.395,370.712 50.833 C 370.945 50.650,371.333 50.500,371.573 50.500 C 371.814 50.500,372.054 50.387,372.106 50.250 C 372.159 50.112,372.346 50.000,372.521 50.000 C 372.834 50.000,374.196 49.205,374.306 48.958 C 374.396 48.755,374.666 48.816,374.672 49.042 C 374.679 49.309,375.253 50.000,375.467 50.000 C 375.557 50.000,375.674 50.112,375.727 50.250 C 375.805 50.452,376.190 50.500,377.745 50.500 C 379.342 50.500,379.667 50.458,379.667 50.250 C 379.667 50.112,379.779 50.000,379.917 50.000 C 380.361 50.000,380.833 49.365,380.833 48.768 C 380.833 48.419,380.929 48.166,381.083 48.106 C 381.302 48.023,381.333 46.680,381.333 37.417 C 381.333 28.154,381.302 26.811,381.083 26.727 C 380.929 26.668,380.833 26.414,380.833 26.066 C 380.833 25.674,380.756 25.500,380.583 25.500 C 380.446 25.500,380.333 25.393,380.333 25.261 C 380.333 25.130,380.183 24.975,380.000 24.917 C 379.817 24.858,379.667 24.703,379.667 24.572 C 379.667 24.211,375.865 24.222,375.727 24.583 C 375.674 24.721,375.527 24.833,375.399 24.833 C 375.271 24.833,375.167 24.983,375.167 25.167 C 375.167 25.352,375.056 25.500,374.917 25.500 C 374.779 25.500,374.667 25.613,374.667 25.750 C 374.667 26.079,373.900 26.082,373.774 25.753 C 373.722 25.617,373.370 25.457,372.992 25.396 C 372.614 25.336,372.266 25.184,372.218 25.060 C 372.169 24.933,371.891 24.833,371.586 24.833 C 371.286 24.833,370.947 24.721,370.833 24.583 C 370.662 24.377,370.075 24.333,367.500 24.333 C 364.925 24.333,364.338 24.377,364.167 24.583 M81.731 25.188 C 81.576 25.359,81.362 25.500,81.256 25.500 C 80.956 25.500,80.333 26.440,80.333 26.892 C 80.333 27.115,80.221 27.341,80.083 27.394 C 79.710 27.537,79.705 47.767,80.078 48.260 C 80.213 48.438,80.325 48.775,80.328 49.010 C 80.334 49.501,81.096 50.500,81.464 50.500 C 81.601 50.500,81.806 50.627,81.920 50.783 C 82.088 51.013,82.406 51.067,83.583 51.067 C 84.761 51.067,85.079 51.013,85.246 50.783 C 85.360 50.627,85.576 50.500,85.727 50.500 C 85.891 50.500,86.000 50.364,86.000 50.157 C 86.000 49.956,86.074 49.859,86.178 49.924 C 86.276 49.984,86.397 49.876,86.447 49.683 C 86.498 49.491,86.635 49.333,86.752 49.333 C 87.141 49.333,87.167 48.848,87.167 41.338 C 87.167 34.853,87.200 33.856,87.417 33.773 C 87.554 33.720,87.667 33.496,87.667 33.275 C 87.667 33.012,87.783 32.842,88.000 32.785 C 88.183 32.737,88.333 32.578,88.333 32.432 C 88.333 32.286,88.446 32.167,88.583 32.167 C 88.721 32.167,88.833 32.054,88.833 31.917 C 88.833 31.760,88.991 31.667,89.255 31.667 C 89.487 31.667,89.720 31.554,89.773 31.417 C 89.826 31.279,90.048 31.167,90.268 31.167 C 90.487 31.167,90.817 31.017,91.000 30.833 C 91.394 30.439,92.333 30.375,92.333 30.742 C 92.333 30.888,92.569 31.029,92.923 31.096 C 93.306 31.167,93.815 31.492,94.373 32.023 L 95.234 32.839 95.289 40.294 C 95.344 47.795,95.413 48.713,95.973 49.376 C 96.109 49.537,96.304 49.837,96.406 50.043 C 96.508 50.248,96.777 50.443,97.004 50.474 C 97.231 50.506,97.477 50.637,97.550 50.766 C 97.748 51.115,100.593 51.100,100.727 50.750 C 100.780 50.612,100.925 50.500,101.049 50.500 C 101.321 50.500,102.000 49.808,102.000 49.531 C 102.000 49.422,102.112 49.333,102.250 49.333 C 102.469 49.333,102.500 48.361,102.500 41.583 C 102.500 35.046,102.537 33.833,102.734 33.833 C 102.862 33.833,103.046 33.608,103.142 33.333 C 103.238 33.058,103.395 32.833,103.491 32.833 C 103.588 32.833,103.667 32.748,103.667 32.644 C 103.667 32.344,104.484 31.667,104.847 31.667 C 105.029 31.667,105.220 31.554,105.273 31.417 C 105.326 31.279,105.538 31.167,105.745 31.167 C 105.952 31.167,106.312 31.017,106.545 30.833 C 107.040 30.444,107.833 30.385,107.833 30.737 C 107.833 30.868,108.073 31.026,108.373 31.092 C 110.632 31.588,110.667 31.733,110.667 40.693 C 110.667 46.895,110.700 47.857,110.917 47.940 C 111.080 48.002,111.167 48.262,111.167 48.684 C 111.167 49.041,111.240 49.333,111.329 49.333 C 111.418 49.333,111.609 49.561,111.753 49.839 C 111.924 50.170,112.183 50.378,112.503 50.442 C 112.772 50.496,113.078 50.644,113.183 50.770 C 113.459 51.102,115.555 51.086,115.833 50.750 C 115.947 50.612,116.200 50.499,116.395 50.497 C 116.844 50.494,116.979 50.392,117.545 49.633 L 118.005 49.016 117.997 40.204 C 117.990 31.855,117.973 31.361,117.671 30.798 C 117.496 30.471,117.386 30.170,117.427 30.129 C 117.546 30.010,117.150 29.000,116.984 29.000 C 116.901 29.000,116.833 28.850,116.833 28.667 C 116.833 28.481,116.722 28.333,116.583 28.333 C 116.419 28.333,116.333 28.169,116.333 27.856 C 116.333 27.323,115.731 26.441,115.475 26.599 C 115.385 26.654,115.270 26.543,115.219 26.350 C 115.167 26.151,114.993 26.000,114.814 26.000 C 114.641 26.000,114.500 25.887,114.500 25.750 C 114.500 25.613,114.404 25.500,114.287 25.500 C 114.170 25.500,113.946 25.350,113.789 25.167 C 113.518 24.851,113.297 24.833,109.552 24.833 L 105.601 24.833 104.967 25.273 C 104.619 25.514,104.333 25.777,104.333 25.856 C 104.333 25.935,104.183 26.000,104.000 26.000 C 103.817 26.000,103.667 26.103,103.667 26.229 C 103.667 26.355,103.442 26.503,103.167 26.558 C 102.892 26.613,102.667 26.764,102.667 26.893 C 102.667 27.022,102.517 27.167,102.333 27.215 C 102.148 27.263,102.000 27.442,102.000 27.618 C 102.000 28.043,101.682 28.333,101.217 28.333 C 100.915 28.333,100.833 28.241,100.833 27.901 C 100.833 27.425,100.221 26.447,100.006 26.580 C 99.831 26.688,99.468 26.254,99.613 26.110 C 99.673 26.049,99.597 26.000,99.444 26.000 C 99.292 26.000,99.167 25.926,99.167 25.836 C 99.167 25.745,98.913 25.565,98.604 25.436 C 98.294 25.307,97.991 25.121,97.931 25.023 C 97.705 24.657,90.185 24.794,89.703 25.174 C 89.475 25.353,89.186 25.500,89.061 25.500 C 88.936 25.500,88.833 25.613,88.833 25.750 C 88.833 25.887,88.721 26.000,88.583 26.000 C 88.446 26.000,88.333 26.113,88.333 26.250 C 88.333 26.397,88.179 26.501,87.958 26.503 C 87.752 26.504,87.475 26.574,87.342 26.658 C 87.041 26.848,86.500 26.582,86.500 26.244 C 86.500 26.110,86.388 26.000,86.250 26.000 C 86.112 26.000,86.000 25.893,86.000 25.761 C 86.000 25.630,85.857 25.477,85.682 25.422 C 85.507 25.366,85.321 25.207,85.267 25.069 C 85.112 24.663,82.115 24.764,81.731 25.188 M124.399 25.068 C 124.350 25.198,124.112 25.353,123.870 25.413 C 123.628 25.474,123.240 25.714,123.007 25.948 L 122.583 26.371 122.583 36.168 C 122.583 45.265,122.604 45.988,122.875 46.287 C 123.035 46.465,123.167 46.689,123.167 46.787 C 123.167 46.885,123.272 47.005,123.401 47.054 C 123.530 47.104,123.686 47.374,123.748 47.655 C 123.809 47.937,123.966 48.167,124.097 48.167 C 124.227 48.167,124.333 48.317,124.333 48.500 C 124.333 48.685,124.444 48.833,124.583 48.833 C 124.721 48.833,124.833 48.946,124.833 49.083 C 124.833 49.222,124.981 49.333,125.167 49.333 C 125.350 49.333,125.500 49.412,125.500 49.508 C 125.500 49.929,126.423 50.490,127.125 50.495 C 127.628 50.498,127.833 50.570,127.833 50.740 C 127.833 51.300,134.709 51.350,135.020 50.792 C 135.137 50.583,135.391 50.500,135.917 50.500 C 136.352 50.500,136.704 50.409,136.783 50.277 C 136.940 50.014,138.000 49.620,138.000 49.824 C 138.000 49.901,137.887 50.008,137.750 50.060 C 137.593 50.120,137.500 50.375,137.500 50.743 C 137.500 51.150,137.398 51.395,137.167 51.539 C 136.983 51.653,136.833 51.879,136.833 52.040 C 136.833 52.201,136.721 52.333,136.583 52.333 C 136.446 52.333,136.333 52.446,136.333 52.583 C 136.333 52.721,136.229 52.833,136.101 52.833 C 135.973 52.833,135.829 52.936,135.781 53.062 C 135.733 53.188,135.360 53.341,134.952 53.403 C 134.545 53.464,134.070 53.621,133.898 53.752 C 133.450 54.091,130.950 54.092,130.669 53.753 C 130.557 53.618,130.102 53.459,129.659 53.400 C 129.212 53.341,128.814 53.191,128.765 53.063 C 128.717 52.937,128.447 52.833,128.167 52.833 C 127.867 52.833,127.617 52.730,127.560 52.583 C 127.496 52.415,127.232 52.333,126.753 52.333 C 126.323 52.333,125.958 52.433,125.833 52.583 C 125.719 52.721,125.485 52.833,125.313 52.833 C 124.948 52.833,124.333 53.396,124.333 53.731 C 124.333 53.857,124.183 54.000,124.000 54.048 C 123.805 54.099,123.667 54.276,123.667 54.472 C 123.667 54.658,123.554 54.922,123.417 55.060 C 123.025 55.451,123.081 56.921,123.499 57.214 C 123.682 57.342,123.776 57.502,123.708 57.570 C 123.640 57.638,123.725 57.797,123.898 57.924 C 124.071 58.050,124.298 58.326,124.402 58.535 C 124.545 58.824,124.758 58.929,125.278 58.967 C 125.794 59.005,125.987 59.098,126.051 59.342 C 126.121 59.610,126.283 59.667,126.984 59.667 C 127.628 59.667,127.833 59.727,127.833 59.917 C 127.833 60.286,135.772 60.291,136.260 59.922 C 136.438 59.787,136.872 59.675,137.224 59.672 C 137.722 59.668,137.884 59.592,137.952 59.333 C 138.024 59.057,138.179 59.000,138.853 59.000 C 139.465 59.000,139.667 58.938,139.667 58.750 C 139.667 58.612,139.779 58.500,139.917 58.500 C 140.054 58.500,140.317 58.350,140.500 58.167 C 140.683 57.983,140.946 57.833,141.083 57.833 C 141.221 57.833,141.333 57.721,141.333 57.583 C 141.333 57.446,141.417 57.333,141.518 57.333 C 141.774 57.333,142.494 56.629,142.497 56.375 C 142.499 56.260,142.568 56.167,142.650 56.167 C 142.869 56.167,143.502 55.034,143.618 54.433 C 143.673 54.149,143.857 53.738,144.026 53.519 C 144.199 53.295,144.333 52.849,144.333 52.498 C 144.333 52.147,144.443 51.783,144.583 51.667 C 144.801 51.486,144.833 49.909,144.833 39.335 L 144.833 27.212 144.464 26.731 C 144.261 26.466,143.999 26.190,143.881 26.117 C 143.763 26.043,143.667 25.890,143.667 25.775 C 143.667 25.661,143.404 25.472,143.083 25.356 C 142.762 25.240,142.500 25.085,142.500 25.013 C 142.500 24.765,140.220 24.804,139.968 25.056 C 139.840 25.184,139.550 25.346,139.326 25.416 C 139.101 25.486,138.713 25.777,138.465 26.063 L 138.014 26.583 138.007 34.042 C 138.001 40.557,137.968 41.500,137.750 41.500 C 137.588 41.500,137.500 41.663,137.500 41.963 C 137.500 42.220,137.352 42.553,137.167 42.711 C 136.983 42.868,136.833 43.147,136.833 43.332 C 136.833 43.518,136.723 43.667,136.583 43.667 C 136.446 43.667,136.333 43.778,136.333 43.913 C 136.333 44.049,136.127 44.212,135.875 44.274 C 135.623 44.337,135.335 44.499,135.236 44.634 C 134.690 45.372,130.500 44.638,130.500 43.804 C 130.500 43.728,130.387 43.667,130.250 43.667 C 130.087 43.667,130.000 43.504,130.000 43.199 C 130.000 42.941,129.890 42.585,129.755 42.407 C 129.550 42.135,129.510 41.012,129.505 35.398 C 129.499 27.550,129.488 27.424,128.730 26.597 C 128.420 26.258,128.167 25.879,128.167 25.754 C 128.167 25.629,127.937 25.476,127.655 25.414 C 127.374 25.352,127.104 25.196,127.054 25.068 C 126.926 24.733,124.528 24.733,124.399 25.068 M262.756 25.545 C 262.393 25.933,262.069 26.437,262.037 26.666 C 262.004 26.895,261.872 27.142,261.744 27.214 C 261.377 27.419,261.381 48.167,261.748 48.167 C 261.917 48.167,262.000 48.331,262.000 48.667 C 262.000 49.028,262.185 49.352,262.667 49.833 L 263.333 50.500 265.167 50.500 C 266.778 50.500,267.040 50.460,267.333 50.167 C 267.517 49.983,267.778 49.833,267.915 49.833 C 268.076 49.833,268.201 49.596,268.271 49.155 C 268.331 48.783,268.482 48.376,268.606 48.251 C 268.964 47.893,268.941 27.364,268.583 27.227 C 268.438 27.171,268.333 26.922,268.333 26.633 C 268.333 26.276,268.239 26.111,268.000 26.048 C 267.817 26.000,267.665 25.876,267.664 25.772 C 267.654 25.113,266.901 24.833,265.143 24.836 L 263.417 24.839 262.756 25.545 M191.833 30.744 C 191.833 30.912,192.096 31.023,192.667 31.099 C 193.125 31.160,193.500 31.272,193.500 31.347 C 193.500 31.423,193.762 31.534,194.083 31.594 C 194.417 31.657,194.667 31.803,194.667 31.935 C 194.667 32.063,194.779 32.167,194.917 32.167 C 195.054 32.167,195.167 32.252,195.167 32.356 C 195.167 32.578,195.946 33.333,196.175 33.333 C 196.262 33.333,196.333 33.561,196.333 33.839 C 196.333 34.134,196.437 34.384,196.583 34.440 C 196.721 34.492,196.833 34.678,196.833 34.853 C 196.833 35.027,196.983 35.298,197.167 35.455 C 197.467 35.713,197.500 35.947,197.500 37.845 C 197.500 39.737,197.466 39.979,197.167 40.250 C 196.983 40.416,196.833 40.730,196.833 40.948 C 196.833 41.166,196.721 41.387,196.583 41.440 C 196.446 41.492,196.333 41.697,196.333 41.894 C 196.333 42.092,196.183 42.347,196.000 42.461 C 195.817 42.576,195.665 42.763,195.663 42.876 C 195.661 42.990,195.417 43.197,195.121 43.335 C 194.825 43.473,194.604 43.685,194.629 43.806 C 194.654 43.926,194.607 43.983,194.523 43.931 C 194.439 43.879,194.278 43.949,194.165 44.085 C 194.052 44.222,193.865 44.333,193.750 44.333 C 193.635 44.333,193.447 44.446,193.333 44.583 C 193.171 44.779,192.712 44.833,191.230 44.833 C 189.655 44.833,189.333 44.791,189.333 44.583 C 189.333 44.444,189.185 44.333,188.998 44.333 C 188.814 44.333,188.535 44.183,188.378 44.000 C 188.221 43.817,188.005 43.667,187.897 43.667 C 187.790 43.667,187.659 43.554,187.606 43.417 C 187.554 43.279,187.396 43.167,187.255 43.167 C 187.115 43.167,187.000 43.054,187.000 42.917 C 187.000 42.779,186.887 42.667,186.750 42.667 C 186.525 42.667,186.426 42.469,186.480 42.125 C 186.491 42.056,186.388 42.000,186.250 42.000 C 186.086 42.000,186.000 41.836,186.000 41.520 C 186.000 41.257,185.896 40.954,185.768 40.848 C 185.641 40.743,185.487 40.327,185.427 39.925 C 185.366 39.523,185.208 39.104,185.075 38.993 C 184.742 38.717,184.737 36.860,185.069 36.732 C 185.203 36.681,185.354 36.292,185.417 35.833 C 185.480 35.375,185.630 34.986,185.764 34.934 C 185.920 34.875,186.000 34.586,186.000 34.089 C 186.000 33.504,186.061 33.333,186.269 33.333 C 186.580 33.333,187.667 32.207,187.667 31.884 C 187.667 31.748,187.879 31.667,188.238 31.667 C 188.552 31.667,188.911 31.566,189.034 31.442 C 189.157 31.319,189.530 31.167,189.862 31.105 C 190.195 31.042,190.558 30.881,190.670 30.746 C 190.941 30.420,191.833 30.419,191.833 30.744 M220.180 30.762 C 220.339 30.906,220.713 31.063,221.011 31.110 C 221.309 31.157,221.658 31.301,221.788 31.431 C 221.918 31.561,222.265 31.667,222.559 31.667 C 223.003 31.667,223.126 31.753,223.288 32.182 C 223.414 32.517,223.553 32.654,223.684 32.573 C 223.805 32.498,223.842 32.519,223.776 32.625 C 223.716 32.721,223.930 33.063,224.250 33.384 C 224.594 33.728,224.833 34.132,224.833 34.369 C 224.833 34.590,224.983 34.931,225.167 35.128 C 225.591 35.584,225.685 40.227,225.273 40.385 C 225.149 40.432,224.960 40.815,224.854 41.236 C 224.748 41.656,224.588 42.000,224.498 42.000 C 224.407 42.000,224.333 42.112,224.333 42.250 C 224.333 42.387,224.258 42.500,224.167 42.500 C 224.075 42.500,224.000 42.611,224.000 42.747 C 224.000 42.883,223.813 43.041,223.583 43.098 C 223.354 43.156,223.167 43.307,223.167 43.435 C 223.167 43.562,223.054 43.667,222.917 43.667 C 222.779 43.667,222.667 43.745,222.667 43.842 C 222.667 43.938,222.404 44.127,222.083 44.261 C 221.762 44.395,221.500 44.578,221.500 44.669 C 221.500 44.963,217.507 44.880,217.394 44.583 C 217.341 44.446,217.201 44.333,217.083 44.333 C 216.965 44.333,216.825 44.220,216.772 44.081 C 216.719 43.942,216.505 43.755,216.296 43.665 C 216.087 43.574,215.767 43.407,215.583 43.292 C 215.400 43.177,215.229 43.075,215.203 43.064 C 215.177 43.054,215.122 42.870,215.081 42.656 C 215.040 42.442,214.892 42.203,214.753 42.125 C 214.614 42.047,214.500 41.875,214.500 41.742 C 214.500 41.609,214.387 41.500,214.250 41.500 C 214.112 41.500,214.000 41.364,214.000 41.199 C 214.000 41.033,213.890 40.751,213.755 40.574 C 213.390 40.091,213.385 35.000,213.750 35.000 C 213.906 35.000,214.000 34.842,214.000 34.578 C 214.000 34.346,214.112 34.113,214.250 34.060 C 214.387 34.008,214.500 33.822,214.500 33.649 C 214.500 33.475,214.608 33.333,214.741 33.333 C 214.873 33.333,215.080 33.127,215.200 32.875 C 215.320 32.623,215.587 32.343,215.792 32.252 C 215.998 32.162,216.167 31.993,216.167 31.877 C 216.167 31.761,216.349 31.667,216.571 31.667 C 216.794 31.667,217.089 31.554,217.226 31.417 C 217.364 31.279,217.661 31.167,217.886 31.167 C 218.112 31.167,218.473 31.019,218.690 30.839 C 219.168 30.441,219.789 30.409,220.180 30.762 M312.399 30.754 C 312.513 30.910,312.970 31.044,313.584 31.100 C 314.194 31.157,314.635 31.285,314.717 31.430 C 314.790 31.560,314.920 31.667,315.006 31.667 C 315.245 31.667,315.833 32.215,315.833 32.437 C 315.833 32.546,316.058 32.712,316.333 32.808 C 316.712 32.940,316.833 33.085,316.833 33.407 C 316.833 33.650,316.975 33.919,317.167 34.039 C 317.385 34.175,317.500 34.427,317.500 34.770 C 317.500 35.057,317.612 35.386,317.750 35.500 C 318.080 35.774,318.116 39.650,317.792 39.975 C 317.566 40.201,317.552 40.253,317.521 41.000 C 317.508 41.311,317.411 41.500,317.263 41.500 C 317.133 41.500,316.977 41.725,316.917 42.000 C 316.856 42.275,316.740 42.500,316.658 42.500 C 316.577 42.500,316.142 42.877,315.693 43.339 C 314.973 44.077,314.772 44.190,314.006 44.280 C 313.511 44.339,313.100 44.480,313.051 44.608 C 312.925 44.935,311.108 44.915,310.833 44.583 C 310.719 44.446,310.391 44.332,310.105 44.331 C 309.332 44.328,308.833 44.158,308.833 43.897 C 308.833 43.770,308.729 43.667,308.601 43.667 C 308.473 43.667,308.326 43.554,308.273 43.417 C 308.220 43.279,308.062 43.167,307.922 43.167 C 307.782 43.167,307.667 43.092,307.667 43.000 C 307.667 42.908,307.517 42.683,307.333 42.500 C 307.150 42.317,307.000 42.017,307.000 41.833 C 307.000 41.648,306.889 41.500,306.750 41.500 C 306.612 41.500,306.500 41.364,306.500 41.199 C 306.500 41.033,306.390 40.751,306.255 40.574 C 306.121 40.396,306.008 40.014,306.005 39.726 C 306.002 39.418,305.897 39.163,305.750 39.106 C 305.563 39.035,305.500 38.734,305.500 37.910 C 305.500 37.154,305.578 36.731,305.750 36.560 C 305.887 36.422,306.000 36.023,306.000 35.673 C 306.000 35.260,306.088 35.002,306.250 34.940 C 306.387 34.887,306.500 34.672,306.500 34.462 C 306.500 34.252,306.650 33.987,306.833 33.872 C 307.022 33.754,307.167 33.483,307.167 33.249 C 307.167 33.020,307.242 32.833,307.333 32.833 C 307.536 32.833,308.833 31.557,308.833 31.358 C 308.833 31.280,309.412 31.167,310.119 31.107 C 310.998 31.033,311.448 30.920,311.544 30.749 C 311.724 30.427,312.162 30.430,312.399 30.754 M369.327 30.742 C 369.437 30.875,369.864 31.034,370.276 31.096 C 370.757 31.168,371.213 31.380,371.550 31.687 C 371.838 31.951,372.133 32.167,372.204 32.167 C 372.275 32.167,372.335 32.260,372.336 32.375 C 372.340 32.629,373.059 33.333,373.315 33.333 C 373.417 33.333,373.500 33.542,373.500 33.796 C 373.500 34.051,373.617 34.427,373.760 34.631 C 373.904 34.836,374.025 35.306,374.030 35.676 C 374.035 36.046,374.135 36.445,374.253 36.562 C 374.533 36.842,374.654 38.667,374.393 38.667 C 374.147 38.667,374.001 39.058,373.998 39.722 C 373.995 40.451,373.826 41.015,373.644 40.902 C 373.560 40.851,373.502 40.870,373.516 40.946 C 373.586 41.351,373.479 42.000,373.342 42.000 C 373.112 42.000,372.333 42.755,372.333 42.977 C 372.333 43.082,372.262 43.167,372.175 43.167 C 371.970 43.167,371.167 43.911,371.166 44.102 C 371.165 44.184,370.813 44.271,370.383 44.296 C 369.953 44.321,369.478 44.452,369.329 44.587 C 368.983 44.900,367.734 44.915,367.616 44.608 C 367.566 44.477,367.144 44.337,366.610 44.275 C 365.794 44.179,365.597 44.074,364.849 43.333 C 364.386 42.875,363.931 42.500,363.837 42.500 C 363.743 42.500,363.667 42.284,363.667 42.020 C 363.667 41.757,363.564 41.455,363.437 41.351 C 363.311 41.246,363.161 40.862,363.102 40.497 C 363.034 40.068,362.908 39.833,362.748 39.833 C 362.541 39.833,362.500 39.474,362.500 37.667 C 362.500 35.859,362.541 35.500,362.748 35.500 C 362.908 35.500,363.034 35.265,363.102 34.836 C 363.161 34.472,363.311 34.087,363.437 33.983 C 363.564 33.878,363.667 33.577,363.667 33.313 C 363.667 32.950,363.745 32.833,363.989 32.833 C 364.166 32.833,364.359 32.682,364.417 32.498 C 364.476 32.313,364.575 32.193,364.637 32.231 C 364.699 32.269,364.938 32.048,365.167 31.738 C 365.433 31.378,365.733 31.169,366.000 31.158 C 366.865 31.120,367.420 30.970,367.550 30.739 C 367.729 30.418,369.060 30.420,369.327 30.742 M166.667 37.083 C 166.667 37.221,166.742 37.333,166.833 37.333 C 167.085 37.333,168.333 38.634,168.333 38.896 C 168.333 39.023,168.446 39.219,168.583 39.333 C 168.757 39.478,168.833 39.861,168.833 40.592 C 168.833 41.304,168.753 41.723,168.583 41.893 C 168.446 42.030,168.333 42.226,168.333 42.328 C 168.333 42.490,167.532 43.323,166.762 43.962 C 166.621 44.078,166.280 44.219,166.003 44.274 C 165.726 44.330,165.500 44.478,165.500 44.604 C 165.500 44.792,164.770 44.833,161.417 44.833 L 157.333 44.833 157.333 40.833 L 157.333 36.833 162.000 36.833 C 166.037 36.833,166.667 36.867,166.667 37.083 " stroke="none" fill="#f4fcfc" fill-rule="evenodd"></path><path id="path1" d="M6.000 3.331 C 6.000 3.422,5.737 3.605,5.417 3.739 C 5.096 3.873,4.833 4.067,4.833 4.170 C 4.833 4.273,4.721 4.470,4.583 4.607 C 4.446 4.745,4.333 5.002,4.333 5.179 C 4.333 5.355,4.230 5.500,4.103 5.500 C 3.680 5.500,3.671 6.108,3.669 34.375 C 3.667 62.390,3.668 62.500,4.000 62.500 C 4.270 62.500,4.333 62.611,4.333 63.083 C 4.333 63.491,4.409 63.667,4.583 63.667 C 4.721 63.667,4.833 63.779,4.833 63.917 C 4.833 64.056,4.981 64.167,5.167 64.167 C 5.389 64.167,5.500 64.278,5.500 64.500 C 5.500 64.757,5.611 64.833,5.982 64.833 C 6.257 64.833,6.506 64.941,6.560 65.083 C 6.628 65.260,6.903 65.333,7.495 65.333 C 8.124 65.333,8.333 65.395,8.333 65.580 C 8.333 66.008,8.504 66.010,37.388 65.963 C 64.123 65.919,65.705 65.900,65.907 65.625 C 66.057 65.420,66.349 65.333,66.893 65.333 C 67.470 65.333,67.667 65.270,67.667 65.083 C 67.667 64.915,67.835 64.833,68.182 64.833 C 68.558 64.833,68.722 64.743,68.785 64.500 C 68.833 64.317,68.971 64.167,69.092 64.167 C 69.212 64.167,69.356 64.024,69.412 63.849 C 69.467 63.674,69.622 63.489,69.756 63.437 C 69.890 63.386,70.000 63.154,70.000 62.922 C 70.000 62.658,70.094 62.500,70.250 62.500 C 70.470 62.500,70.500 60.599,70.500 46.394 L 70.500 30.288 70.042 29.852 C 69.327 29.173,66.571 29.195,65.930 29.886 L 65.502 30.349 65.459 45.299 L 65.417 60.250 65.000 60.308 C 64.771 60.339,64.523 60.471,64.450 60.599 C 64.242 60.965,9.804 60.949,9.500 60.583 C 9.386 60.446,9.189 60.333,9.063 60.333 C 8.869 60.333,8.833 57.674,8.833 43.417 L 8.833 26.500 37.167 26.500 L 65.500 26.500 65.500 27.083 C 65.500 27.491,65.575 27.667,65.750 27.667 C 65.887 27.667,66.000 27.752,66.000 27.856 C 66.000 28.773,69.353 29.331,69.872 28.500 C 69.987 28.317,70.175 28.167,70.290 28.167 C 70.457 28.167,70.500 25.874,70.500 17.037 L 70.500 5.908 69.986 5.345 C 69.704 5.036,69.405 4.606,69.323 4.389 C 69.241 4.173,68.966 3.905,68.712 3.793 C 68.458 3.682,68.190 3.495,68.117 3.379 C 67.947 3.109,6.000 3.061,6.000 3.331 M65.500 14.583 L 65.500 21.500 37.167 21.500 L 8.833 21.500 8.833 14.583 L 8.833 7.667 37.167 7.667 L 65.500 7.667 65.500 14.583 M20.288 9.167 C 20.055 9.350,19.742 9.500,19.593 9.500 C 19.445 9.500,19.280 9.612,19.227 9.750 C 19.174 9.887,19.035 10.000,18.918 10.000 C 18.801 10.000,18.666 10.150,18.618 10.333 C 18.570 10.517,18.412 10.667,18.266 10.667 C 18.120 10.667,18.000 10.779,18.000 10.917 C 18.000 11.054,17.887 11.167,17.750 11.167 C 17.599 11.167,17.500 11.321,17.500 11.558 C 17.500 11.772,17.350 12.084,17.167 12.250 C 16.867 12.521,16.833 12.763,16.833 14.625 C 16.833 16.558,16.856 16.704,17.167 16.785 C 17.417 16.851,17.500 17.012,17.500 17.436 C 17.500 17.826,17.577 18.000,17.750 18.000 C 17.887 18.000,18.000 18.112,18.000 18.250 C 18.000 18.389,18.148 18.500,18.333 18.500 C 18.556 18.500,18.667 18.611,18.667 18.833 C 18.667 19.093,18.778 19.167,19.167 19.167 C 19.500 19.167,19.667 19.250,19.667 19.417 C 19.667 19.609,19.880 19.667,20.583 19.667 C 21.268 19.667,21.500 19.727,21.500 19.905 C 21.500 20.420,23.415 20.415,23.613 19.900 C 23.673 19.744,23.972 19.667,24.518 19.667 C 25.132 19.667,25.333 19.605,25.333 19.417 C 25.333 19.278,25.481 19.167,25.667 19.167 C 25.889 19.167,26.000 19.056,26.000 18.833 C 26.000 18.648,26.111 18.500,26.250 18.500 C 26.387 18.500,26.500 18.396,26.500 18.269 C 26.500 18.143,26.650 18.000,26.833 17.952 C 27.017 17.904,27.167 17.745,27.167 17.599 C 27.167 17.453,27.279 17.333,27.417 17.333 C 27.603 17.333,27.667 17.136,27.667 16.560 C 27.667 16.020,27.753 15.723,27.955 15.576 C 28.145 15.437,28.242 15.138,28.242 14.696 C 28.242 14.296,28.127 13.899,27.955 13.709 C 27.778 13.513,27.667 13.120,27.667 12.690 C 27.667 12.221,27.584 11.958,27.417 11.894 C 27.279 11.841,27.167 11.702,27.167 11.586 C 27.167 11.469,27.046 11.274,26.899 11.152 C 26.752 11.030,26.566 10.757,26.486 10.546 C 26.405 10.334,26.158 10.092,25.936 10.007 C 25.714 9.923,25.483 9.774,25.423 9.677 C 25.363 9.580,25.168 9.500,24.990 9.500 C 24.812 9.500,24.517 9.350,24.333 9.167 C 24.045 8.878,23.778 8.833,22.356 8.833 C 20.964 8.833,20.647 8.884,20.288 9.167 M49.875 9.005 C 49.669 9.088,49.500 9.233,49.500 9.328 C 49.500 9.423,49.358 9.500,49.184 9.500 C 49.011 9.500,48.826 9.612,48.773 9.750 C 48.720 9.887,48.557 10.000,48.409 10.000 C 48.028 10.000,47.167 10.910,47.167 11.312 C 47.167 11.498,47.049 11.716,46.905 11.797 C 46.758 11.879,46.599 12.268,46.544 12.677 C 46.490 13.081,46.345 13.512,46.223 13.634 C 45.905 13.952,45.926 15.482,46.250 15.606 C 46.421 15.672,46.500 15.939,46.500 16.450 C 46.500 17.058,46.562 17.214,46.833 17.285 C 47.018 17.333,47.167 17.512,47.167 17.686 C 47.167 17.859,47.279 18.000,47.417 18.000 C 47.554 18.000,47.667 18.112,47.667 18.250 C 47.667 18.389,47.815 18.500,48.000 18.500 C 48.222 18.500,48.333 18.611,48.333 18.833 C 48.333 19.019,48.444 19.167,48.583 19.167 C 48.721 19.167,48.833 19.279,48.833 19.417 C 48.833 19.609,49.046 19.667,49.750 19.667 C 50.431 19.667,50.667 19.728,50.667 19.903 C 50.667 20.034,50.885 20.188,51.153 20.247 C 51.821 20.394,52.833 20.183,52.833 19.898 C 52.833 19.731,53.067 19.667,53.667 19.667 C 54.267 19.667,54.500 19.602,54.500 19.435 C 54.500 19.303,54.749 19.157,55.083 19.094 C 55.433 19.029,55.667 18.888,55.667 18.742 C 55.667 18.609,55.776 18.500,55.909 18.500 C 56.054 18.500,56.195 18.266,56.261 17.917 C 56.324 17.583,56.469 17.333,56.602 17.333 C 56.729 17.333,56.833 17.248,56.833 17.143 C 56.833 17.039,56.965 16.857,57.125 16.740 C 57.374 16.558,57.417 16.242,57.417 14.583 C 57.417 12.925,57.374 12.609,57.125 12.427 C 56.965 12.309,56.833 12.109,56.833 11.982 C 56.832 11.854,56.581 11.477,56.274 11.143 C 55.967 10.808,55.670 10.415,55.613 10.268 C 55.557 10.120,55.404 10.000,55.273 10.000 C 55.142 10.000,54.992 9.887,54.940 9.750 C 54.884 9.604,54.634 9.500,54.339 9.500 C 54.020 9.500,53.833 9.415,53.833 9.269 C 53.833 8.842,50.787 8.639,49.875 9.005 M51.375 31.777 C 51.260 31.823,51.167 31.967,51.167 32.097 C 51.167 32.227,51.054 32.333,50.917 32.333 C 50.779 32.333,50.667 32.446,50.667 32.583 C 50.667 32.721,50.547 32.833,50.401 32.833 C 50.255 32.833,50.096 32.983,50.048 33.167 C 50.000 33.350,49.857 33.500,49.731 33.500 C 49.604 33.500,49.500 33.612,49.500 33.750 C 49.500 33.887,49.417 34.000,49.315 34.000 C 49.059 34.000,48.340 34.704,48.336 34.958 C 48.335 35.073,48.221 35.167,48.083 35.167 C 47.946 35.167,47.833 35.244,47.833 35.339 C 47.833 35.433,47.712 35.557,47.564 35.614 C 47.268 35.727,47.137 35.841,45.357 37.514 C 44.683 38.148,44.064 38.667,43.982 38.667 C 43.900 38.667,43.833 38.779,43.833 38.917 C 43.833 39.054,43.748 39.167,43.644 39.167 C 43.422 39.167,42.667 39.946,42.667 40.175 C 42.667 40.262,42.573 40.335,42.458 40.336 C 42.204 40.340,41.500 41.059,41.500 41.315 C 41.500 41.417,41.426 41.500,41.335 41.500 C 41.107 41.500,38.667 43.922,38.667 44.149 C 38.667 44.250,38.552 44.333,38.411 44.333 C 38.271 44.333,38.113 44.446,38.060 44.583 C 38.008 44.721,37.860 44.833,37.732 44.833 C 37.604 44.833,37.500 44.905,37.500 44.992 C 37.500 45.199,36.699 46.000,36.492 46.000 C 36.405 46.000,36.333 46.072,36.333 46.159 C 36.333 46.366,35.532 47.167,35.326 47.167 C 35.238 47.167,35.167 47.279,35.167 47.417 C 35.167 47.554,35.073 47.668,34.958 47.671 C 34.844 47.673,34.193 48.198,33.512 48.837 C 32.831 49.477,32.178 50.000,32.061 50.000 C 31.944 50.000,29.925 48.087,27.574 45.749 C 25.223 43.411,23.110 41.348,22.877 41.166 C 22.256 40.677,19.797 40.677,19.378 41.167 C 19.221 41.350,19.006 41.500,18.900 41.500 C 18.386 41.500,18.322 44.651,18.833 44.785 C 19.017 44.833,19.167 44.976,19.167 45.103 C 19.167 45.230,19.270 45.333,19.397 45.333 C 19.524 45.333,19.667 45.483,19.715 45.667 C 19.763 45.850,19.922 46.000,20.068 46.000 C 20.214 46.000,20.333 46.112,20.333 46.250 C 20.333 46.387,20.437 46.500,20.564 46.500 C 20.691 46.500,20.834 46.650,20.882 46.833 C 20.930 47.017,21.088 47.167,21.234 47.167 C 21.380 47.167,21.500 47.279,21.500 47.417 C 21.500 47.554,21.613 47.667,21.750 47.667 C 21.887 47.667,22.000 47.779,22.000 47.917 C 22.000 48.054,22.113 48.167,22.250 48.167 C 22.387 48.167,22.500 48.286,22.500 48.432 C 22.500 48.578,22.650 48.737,22.833 48.785 C 23.017 48.833,23.167 48.976,23.167 49.103 C 23.167 49.230,23.279 49.333,23.417 49.333 C 23.554 49.333,23.667 49.453,23.667 49.599 C 23.667 49.745,23.817 49.904,24.000 49.952 C 24.183 50.000,24.333 50.143,24.333 50.269 C 24.333 50.396,24.446 50.500,24.583 50.500 C 24.721 50.500,24.833 50.620,24.833 50.766 C 24.833 50.912,24.983 51.070,25.167 51.118 C 25.350 51.166,25.500 51.309,25.500 51.436 C 25.500 51.563,25.613 51.667,25.750 51.667 C 25.887 51.667,26.000 51.779,26.000 51.917 C 26.000 52.054,26.113 52.167,26.250 52.167 C 26.387 52.167,26.500 52.286,26.500 52.432 C 26.500 52.578,26.650 52.737,26.833 52.785 C 27.017 52.833,27.167 52.976,27.167 53.103 C 27.167 53.230,27.270 53.333,27.397 53.333 C 27.524 53.333,27.667 53.483,27.715 53.667 C 27.763 53.850,27.922 54.000,28.068 54.000 C 28.214 54.000,28.333 54.112,28.333 54.250 C 28.333 54.387,28.437 54.500,28.564 54.500 C 28.691 54.500,28.834 54.650,28.882 54.833 C 28.930 55.017,29.088 55.167,29.234 55.167 C 29.380 55.167,29.500 55.279,29.500 55.417 C 29.500 55.554,29.613 55.667,29.750 55.667 C 29.887 55.667,30.000 55.779,30.000 55.917 C 30.000 56.054,30.107 56.167,30.239 56.167 C 30.370 56.167,30.525 56.317,30.583 56.500 C 30.677 56.796,30.836 56.833,31.992 56.833 C 33.154 56.833,33.304 56.797,33.382 56.500 C 33.430 56.317,33.588 56.167,33.734 56.167 C 33.880 56.167,34.000 56.094,34.000 56.004 C 34.000 55.915,34.225 55.726,34.500 55.583 C 34.775 55.441,35.335 54.989,35.745 54.579 C 36.156 54.169,36.568 53.833,36.662 53.833 C 36.756 53.833,36.833 53.721,36.833 53.583 C 36.833 53.446,36.946 53.333,37.083 53.333 C 37.221 53.333,37.333 53.230,37.333 53.103 C 37.333 52.976,37.483 52.833,37.667 52.785 C 37.850 52.737,38.000 52.578,38.000 52.432 C 38.000 52.286,38.112 52.167,38.250 52.167 C 38.387 52.167,38.500 52.054,38.500 51.917 C 38.500 51.779,38.585 51.667,38.689 51.667 C 38.912 51.667,39.667 50.888,39.667 50.658 C 39.667 50.571,39.760 50.499,39.875 50.497 C 40.129 50.494,40.833 49.774,40.833 49.518 C 40.833 49.417,40.904 49.333,40.991 49.333 C 41.221 49.333,42.000 48.578,42.000 48.356 C 42.000 48.252,42.112 48.167,42.250 48.167 C 42.387 48.167,42.500 48.054,42.500 47.917 C 42.500 47.778,42.648 47.667,42.833 47.667 C 43.017 47.667,43.167 47.562,43.167 47.434 C 43.167 47.307,43.279 47.159,43.417 47.106 C 43.554 47.054,43.667 46.896,43.667 46.755 C 43.667 46.615,43.760 46.499,43.875 46.497 C 44.129 46.494,44.833 45.774,44.833 45.518 C 44.833 45.417,44.948 45.333,45.089 45.333 C 45.229 45.333,45.387 45.221,45.440 45.083 C 45.492 44.946,45.632 44.833,45.750 44.833 C 45.868 44.833,46.008 44.720,46.061 44.581 C 46.115 44.442,46.348 44.256,46.579 44.168 C 46.811 44.080,47.000 43.936,47.000 43.849 C 47.000 43.761,47.150 43.642,47.333 43.583 C 47.517 43.525,47.667 43.370,47.667 43.239 C 47.667 43.107,47.779 43.000,47.917 43.000 C 48.054 43.000,48.167 42.887,48.167 42.750 C 48.167 42.612,48.250 42.500,48.352 42.500 C 48.608 42.500,49.327 41.796,49.330 41.542 C 49.332 41.427,49.417 41.333,49.518 41.333 C 49.774 41.333,50.494 40.629,50.497 40.375 C 50.499 40.260,50.650 40.167,50.833 40.167 C 51.019 40.167,51.167 40.056,51.167 39.917 C 51.167 39.779,51.279 39.667,51.417 39.667 C 51.554 39.667,51.667 39.547,51.667 39.401 C 51.667 39.255,51.817 39.096,52.000 39.048 C 52.183 39.000,52.333 38.857,52.333 38.731 C 52.333 38.604,52.446 38.500,52.583 38.500 C 52.721 38.500,52.833 38.387,52.833 38.250 C 52.833 38.112,52.941 38.000,53.072 38.000 C 53.203 38.000,53.358 37.850,53.417 37.667 C 53.475 37.483,53.630 37.333,53.761 37.333 C 53.893 37.333,54.000 37.221,54.000 37.083 C 54.000 36.946,54.112 36.833,54.250 36.833 C 54.389 36.833,54.500 36.685,54.500 36.500 C 54.500 36.278,54.611 36.167,54.833 36.167 C 55.017 36.167,55.167 36.062,55.167 35.934 C 55.167 35.807,55.279 35.659,55.417 35.606 C 55.608 35.533,55.667 35.217,55.667 34.255 C 55.667 33.380,55.591 32.912,55.417 32.708 C 54.478 31.614,54.599 31.666,53.042 31.680 C 52.240 31.687,51.490 31.731,51.375 31.777 " stroke="none" fill="#3cb4e4" fill-rule="evenodd"></path></g></svg>