<svg id="svg" version="1.1" xmlns="http://www.w3.org/2000/svg" xmlns:xlink="http://www.w3.org/1999/xlink" width="400" height="68.57142857142857" viewBox="0, 0, 400,68.57142857142857"><g id="svgg"><path id="path0" d="M6.481 3.465 C 6.262 3.629,5.876 3.853,5.623 3.963 C 5.369 4.072,5.071 4.369,4.959 4.623 C 4.848 4.876,4.662 5.143,4.545 5.217 C 4.429 5.290,4.333 5.441,4.333 5.552 C 4.333 5.662,4.183 5.847,4.000 5.961 C 3.474 6.290,3.474 62.043,4.000 62.372 C 4.183 62.487,4.336 62.731,4.339 62.915 C 4.344 63.253,5.035 64.167,5.285 64.167 C 5.359 64.167,5.513 64.317,5.628 64.500 C 5.742 64.683,6.015 64.833,6.234 64.833 C 6.452 64.833,6.674 64.946,6.727 65.083 C 6.795 65.260,7.070 65.333,7.661 65.333 C 8.296 65.333,8.500 65.394,8.500 65.583 C 8.500 65.952,64.910 65.965,65.320 65.597 C 65.465 65.467,65.992 65.339,66.492 65.313 C 66.992 65.287,67.517 65.164,67.659 65.038 C 67.801 64.913,68.235 64.591,68.625 64.321 C 69.050 64.027,69.333 63.701,69.333 63.505 C 69.333 63.325,69.485 63.097,69.671 62.998 C 69.857 62.898,69.974 62.759,69.930 62.688 C 69.886 62.617,69.997 62.434,70.175 62.281 C 70.493 62.009,70.500 61.665,70.494 46.460 L 70.488 30.917 70.119 30.487 C 69.375 29.621,67.131 29.133,66.881 29.782 C 66.835 29.902,66.653 30.000,66.477 30.000 C 66.301 30.000,66.108 30.131,66.049 30.292 C 65.990 30.452,65.842 30.643,65.721 30.717 C 65.540 30.826,65.500 33.543,65.500 45.675 C 65.500 58.742,65.470 60.500,65.250 60.500 C 65.112 60.500,65.000 60.575,65.000 60.667 C 65.000 60.980,9.245 60.888,8.932 60.574 C 8.701 60.344,8.672 58.468,8.668 43.408 L 8.664 26.500 37.082 26.500 L 65.500 26.500 65.500 26.844 C 65.500 27.246,66.307 28.370,66.507 28.246 C 66.581 28.200,66.690 28.310,66.747 28.491 C 66.957 29.152,69.192 28.886,69.920 28.114 L 70.507 27.492 70.462 16.845 L 70.417 6.199 69.917 5.734 C 69.642 5.478,69.432 5.218,69.451 5.156 C 69.470 5.094,69.336 4.902,69.154 4.730 C 68.971 4.558,68.695 4.285,68.540 4.125 C 68.386 3.965,68.175 3.833,68.072 3.833 C 67.969 3.833,67.749 3.683,67.583 3.500 C 67.135 3.004,7.140 2.970,6.481 3.465 M65.500 14.584 L 65.500 21.501 37.125 21.459 L 8.750 21.417 8.717 14.782 C 8.699 11.133,8.726 8.039,8.777 7.907 C 8.857 7.699,12.679 7.667,37.184 7.667 L 65.500 7.667 65.500 14.584 M21.141 9.281 C 21.041 9.401,20.759 9.500,20.513 9.500 C 20.268 9.500,19.893 9.631,19.680 9.792 C 18.766 10.479,18.000 11.221,18.000 11.418 C 18.000 11.535,17.887 11.674,17.750 11.727 C 17.612 11.780,17.500 11.966,17.500 12.141 C 17.500 12.316,17.394 12.547,17.264 12.655 C 16.741 13.089,16.746 16.667,17.269 16.667 C 17.396 16.667,17.500 16.811,17.500 16.988 C 17.500 17.165,17.612 17.422,17.750 17.560 C 17.887 17.697,18.000 17.930,18.000 18.077 C 18.000 18.224,18.131 18.394,18.292 18.455 C 18.452 18.516,18.729 18.702,18.906 18.867 C 19.084 19.032,19.296 19.167,19.377 19.167 C 19.458 19.167,19.636 19.279,19.774 19.417 C 19.913 19.556,20.320 19.667,20.690 19.667 C 21.061 19.667,21.468 19.778,21.607 19.917 C 21.745 20.054,22.034 20.167,22.250 20.167 C 22.466 20.167,22.755 20.054,22.893 19.917 C 23.053 19.757,23.464 19.667,24.031 19.667 C 24.745 19.667,24.962 19.600,25.132 19.327 C 25.249 19.140,25.402 19.023,25.474 19.067 C 25.630 19.164,26.500 18.272,26.500 18.015 C 26.500 17.915,26.565 17.833,26.644 17.833 C 26.998 17.833,27.667 16.546,27.667 15.864 C 27.667 15.478,27.760 15.003,27.875 14.809 C 28.042 14.527,28.042 14.441,27.875 14.381 C 27.747 14.335,27.667 13.993,27.667 13.498 C 27.667 13.054,27.573 12.589,27.458 12.466 C 27.114 12.094,26.500 11.189,26.497 11.048 C 26.493 10.865,25.738 10.167,25.544 10.167 C 25.456 10.167,25.211 10.017,25.000 9.833 C 24.787 9.648,24.376 9.500,24.078 9.500 C 23.783 9.500,23.457 9.399,23.354 9.275 C 23.107 8.977,21.389 8.982,21.141 9.281 M50.763 9.276 C 50.666 9.530,50.626 9.538,50.494 9.329 C 50.389 9.163,50.338 9.151,50.336 9.292 C 50.334 9.406,50.277 9.491,50.208 9.480 C 49.842 9.422,49.511 9.535,49.167 9.833 C 48.955 10.017,48.720 10.167,48.643 10.167 C 48.410 10.167,47.833 10.727,47.833 10.954 C 47.833 11.071,47.729 11.167,47.601 11.167 C 47.346 11.167,47.167 11.517,47.167 12.014 C 47.167 12.189,47.064 12.333,46.938 12.333 C 46.672 12.333,46.475 13.120,46.611 13.640 C 46.673 13.876,46.614 14.031,46.436 14.099 C 46.125 14.219,46.072 15.005,46.356 15.290 C 46.460 15.394,46.575 15.840,46.612 16.281 C 46.648 16.722,46.788 17.167,46.922 17.268 C 47.057 17.370,47.167 17.531,47.167 17.626 C 47.167 17.720,47.279 17.841,47.417 17.894 C 47.554 17.946,47.667 18.104,47.667 18.245 C 47.667 18.386,47.811 18.500,47.989 18.500 C 48.166 18.500,48.359 18.651,48.417 18.836 C 48.476 19.020,48.580 19.137,48.649 19.094 C 48.718 19.052,48.899 19.163,49.052 19.342 C 49.250 19.573,49.543 19.667,50.068 19.667 C 50.474 19.667,50.831 19.743,50.862 19.837 C 50.968 20.154,52.085 20.225,52.376 19.934 C 52.530 19.779,52.919 19.667,53.299 19.667 C 53.710 19.667,54.119 19.538,54.394 19.321 C 54.636 19.131,54.833 19.036,54.833 19.109 C 54.833 19.183,55.169 18.877,55.579 18.431 C 55.988 17.985,56.289 17.564,56.247 17.495 C 56.205 17.427,56.303 17.337,56.464 17.294 C 56.626 17.252,56.772 17.044,56.788 16.832 C 56.804 16.620,56.914 16.386,57.033 16.313 C 57.337 16.125,57.386 13.222,57.087 13.108 C 56.971 13.063,56.825 12.759,56.764 12.432 C 56.703 12.105,56.565 11.856,56.459 11.877 C 56.352 11.899,56.262 11.817,56.258 11.695 C 56.253 11.573,56.119 11.377,55.958 11.260 C 55.798 11.143,55.667 10.961,55.667 10.857 C 55.667 10.752,55.559 10.667,55.428 10.667 C 55.297 10.667,55.142 10.517,55.083 10.333 C 55.025 10.150,54.879 10.000,54.759 10.000 C 54.639 10.000,54.447 9.887,54.333 9.750 C 54.219 9.612,53.966 9.500,53.771 9.499 C 53.576 9.498,53.229 9.401,53.000 9.282 C 52.308 8.923,50.900 8.919,50.763 9.276 M52.189 14.535 C 52.364 14.660,52.349 14.676,52.125 14.604 C 51.960 14.551,51.833 14.595,51.833 14.705 C 51.833 14.839,51.780 14.846,51.661 14.728 C 51.567 14.633,51.539 14.424,51.601 14.264 C 51.681 14.056,51.749 14.030,51.837 14.172 C 51.905 14.283,52.063 14.446,52.189 14.535 M22.664 14.718 C 22.662 15.015,22.631 15.037,22.500 14.833 C 22.411 14.696,22.337 14.655,22.336 14.742 C 22.334 14.829,22.240 14.807,22.126 14.693 C 21.962 14.528,21.968 14.456,22.160 14.337 C 22.484 14.137,22.667 14.276,22.664 14.718 M49.794 33.786 C 48.684 34.866,47.382 36.144,46.899 36.625 C 46.416 37.106,45.961 37.500,45.886 37.501 C 45.811 37.501,45.389 37.876,44.947 38.334 C 44.505 38.792,44.074 39.167,43.988 39.167 C 43.903 39.167,43.833 39.270,43.833 39.397 C 43.833 39.524,43.683 39.667,43.500 39.715 C 43.317 39.763,43.167 39.922,43.167 40.068 C 43.167 40.214,43.054 40.333,42.917 40.333 C 42.779 40.333,42.667 40.446,42.667 40.583 C 42.667 40.721,42.587 40.833,42.489 40.833 C 42.233 40.833,40.333 42.703,40.333 42.955 C 40.333 43.071,40.240 43.168,40.125 43.170 C 39.871 43.173,39.167 43.892,39.167 44.148 C 39.167 44.250,39.054 44.333,38.917 44.333 C 38.779 44.333,38.667 44.446,38.667 44.583 C 38.667 44.721,38.557 44.833,38.423 44.833 C 38.157 44.833,35.000 47.913,35.000 48.173 C 35.000 48.261,34.895 48.333,34.766 48.333 C 34.637 48.333,34.027 48.821,33.410 49.417 C 32.794 50.012,32.187 50.500,32.061 50.500 C 31.794 50.500,30.500 49.248,30.500 48.990 C 30.500 48.893,30.420 48.863,30.322 48.924 C 30.224 48.984,30.103 48.876,30.053 48.683 C 30.002 48.491,29.898 48.333,29.821 48.333 C 29.629 48.333,28.833 47.522,28.833 47.326 C 28.833 47.238,28.750 47.167,28.649 47.167 C 28.547 47.167,27.836 46.529,27.069 45.750 C 26.302 44.971,25.593 44.333,25.494 44.333 C 25.395 44.333,25.358 44.262,25.411 44.175 C 25.465 44.088,25.357 43.935,25.171 43.836 C 24.985 43.736,24.833 43.545,24.833 43.411 C 24.833 43.277,24.762 43.167,24.674 43.167 C 24.587 43.167,24.168 42.814,23.742 42.383 C 23.317 41.951,22.865 41.583,22.738 41.564 C 22.611 41.546,22.401 41.425,22.272 41.296 C 21.651 40.675,20.034 40.979,19.045 41.903 C 18.422 42.483,18.496 44.344,19.167 45.000 C 19.442 45.269,19.667 45.566,19.667 45.661 C 19.667 45.756,19.747 45.833,19.845 45.833 C 20.054 45.833,21.500 47.308,21.500 47.521 C 21.500 47.601,21.604 47.667,21.732 47.667 C 21.860 47.667,22.008 47.779,22.060 47.917 C 22.113 48.054,22.271 48.167,22.411 48.167 C 22.552 48.167,22.667 48.239,22.667 48.326 C 22.667 48.558,23.914 49.833,24.141 49.833 C 24.247 49.833,24.333 49.928,24.333 50.043 C 24.333 50.158,24.596 50.471,24.917 50.738 C 25.237 51.006,25.500 51.324,25.500 51.446 C 25.500 51.567,25.604 51.667,25.732 51.667 C 25.860 51.667,26.008 51.779,26.060 51.917 C 26.113 52.054,26.271 52.167,26.411 52.167 C 26.552 52.167,26.667 52.245,26.667 52.341 C 26.667 52.553,30.302 56.167,30.515 56.167 C 30.599 56.167,30.667 56.271,30.667 56.399 C 30.667 57.095,32.601 56.951,33.466 56.190 C 33.844 55.856,34.341 55.433,34.569 55.250 C 34.798 55.067,34.988 54.831,34.992 54.726 C 34.997 54.622,35.196 54.487,35.436 54.427 C 35.676 54.366,35.834 54.279,35.787 54.232 C 35.709 54.153,36.432 53.333,36.580 53.333 C 36.615 53.333,37.076 52.921,37.604 52.418 C 38.132 51.915,38.922 51.221,39.359 50.876 C 39.796 50.532,40.156 50.156,40.160 50.042 C 40.164 49.927,40.282 49.833,40.422 49.833 C 40.562 49.833,40.722 49.716,40.777 49.572 C 40.899 49.256,42.636 47.525,42.733 47.622 C 42.772 47.661,42.852 47.536,42.913 47.346 C 42.973 47.156,43.081 47.000,43.154 47.000 C 43.355 47.000,44.167 46.205,44.167 46.008 C 44.167 45.912,44.235 45.833,44.319 45.833 C 44.402 45.833,44.963 45.346,45.565 44.750 C 46.166 44.154,46.730 43.667,46.818 43.667 C 46.906 43.667,47.025 43.518,47.082 43.337 C 47.140 43.155,47.241 43.024,47.307 43.045 C 47.373 43.066,47.666 42.840,47.958 42.542 C 48.250 42.244,48.534 42.000,48.590 42.000 C 48.646 42.000,49.130 41.550,49.667 41.000 C 50.203 40.450,50.735 40.000,50.849 40.000 C 50.963 40.000,51.015 39.959,50.965 39.910 C 50.916 39.860,51.559 39.168,52.396 38.372 C 53.232 37.576,54.082 36.754,54.284 36.545 C 54.486 36.337,54.723 36.167,54.812 36.167 C 54.901 36.167,55.023 35.941,55.084 35.665 C 55.144 35.389,55.254 35.201,55.329 35.247 C 55.403 35.293,55.515 35.056,55.578 34.720 C 55.700 34.070,55.109 32.520,54.734 32.506 C 54.634 32.503,54.426 32.361,54.272 32.191 C 54.060 31.957,53.725 31.874,52.902 31.851 L 51.812 31.821 49.794 33.786 " stroke="none" fill="#3cb4e4" fill-rule="evenodd"></path><path id="path1" d="M6.000 3.331 C 6.000 3.422,5.737 3.605,5.417 3.739 C 5.096 3.873,4.833 4.067,4.833 4.170 C 4.833 4.273,4.721 4.470,4.583 4.607 C 4.446 4.745,4.333 4.962,4.333 5.090 C 4.333 5.478,4.751 5.190,4.949 4.666 C 5.053 4.390,5.343 4.084,5.609 3.969 C 5.870 3.856,6.262 3.629,6.481 3.465 L 6.878 3.167 6.439 3.167 C 6.198 3.167,6.000 3.241,6.000 3.331 M67.583 3.500 C 67.749 3.683,67.969 3.833,68.072 3.833 C 68.175 3.833,68.386 3.965,68.540 4.125 C 68.695 4.285,68.971 4.558,69.154 4.730 C 69.336 4.902,69.470 5.094,69.451 5.156 C 69.432 5.218,69.612 5.452,69.850 5.676 C 70.088 5.900,70.326 6.196,70.378 6.333 C 70.447 6.513,70.477 6.488,70.487 6.245 C 70.494 6.060,70.269 5.654,69.986 5.345 C 69.704 5.036,69.405 4.606,69.323 4.389 C 69.241 4.173,68.966 3.905,68.712 3.793 C 68.458 3.682,68.190 3.495,68.117 3.379 C 68.043 3.262,67.826 3.167,67.633 3.167 C 67.292 3.167,67.291 3.177,67.583 3.500 M3.788 5.823 C 3.714 6.104,3.745 6.121,4.018 5.950 C 4.388 5.719,4.430 5.500,4.103 5.500 C 3.976 5.500,3.834 5.646,3.788 5.823 M8.742 15.000 C 8.742 18.529,8.764 19.973,8.791 18.208 C 8.818 16.444,8.818 13.556,8.791 11.792 C 8.764 10.027,8.742 11.471,8.742 15.000 M20.288 9.167 C 20.055 9.350,19.742 9.500,19.593 9.500 C 19.445 9.500,19.280 9.612,19.227 9.750 C 19.174 9.887,19.035 10.000,18.918 10.000 C 18.801 10.000,18.666 10.150,18.618 10.333 C 18.570 10.517,18.412 10.667,18.266 10.667 C 18.120 10.667,18.000 10.779,18.000 10.917 C 18.000 11.054,17.887 11.167,17.750 11.167 C 17.612 11.167,17.500 11.314,17.500 11.495 C 17.500 11.718,17.580 11.792,17.750 11.727 C 17.887 11.674,18.000 11.535,18.000 11.418 C 18.000 11.221,18.766 10.479,19.680 9.792 C 19.893 9.631,20.263 9.500,20.501 9.500 C 20.739 9.500,21.027 9.406,21.142 9.292 C 21.436 8.997,23.111 8.982,23.351 9.271 C 23.566 9.530,24.500 9.586,24.500 9.339 C 24.500 8.734,21.019 8.592,20.288 9.167 M49.875 9.005 C 49.669 9.088,49.500 9.233,49.500 9.328 C 49.500 9.423,49.358 9.500,49.184 9.500 C 49.011 9.500,48.826 9.612,48.773 9.750 C 48.720 9.887,48.557 10.000,48.409 10.000 C 48.037 10.000,47.164 10.909,47.180 11.279 C 47.187 11.454,47.229 11.495,47.277 11.375 C 47.323 11.260,47.467 11.167,47.597 11.167 C 47.727 11.167,47.833 11.071,47.833 10.954 C 47.833 10.727,48.410 10.167,48.643 10.167 C 48.720 10.167,48.955 10.017,49.167 9.833 C 49.511 9.535,49.842 9.422,50.208 9.480 C 50.277 9.491,50.334 9.406,50.336 9.292 C 50.338 9.151,50.389 9.163,50.494 9.329 C 50.626 9.538,50.666 9.530,50.763 9.276 C 50.900 8.919,52.308 8.923,53.000 9.282 C 53.540 9.562,53.833 9.558,53.833 9.269 C 53.833 8.842,50.787 8.639,49.875 9.005 M25.000 9.833 C 25.211 10.017,25.467 10.168,25.567 10.170 C 25.761 10.173,26.500 10.888,26.500 11.072 C 26.500 11.193,27.136 12.118,27.458 12.466 C 27.630 12.651,27.667 12.629,27.667 12.340 C 27.667 12.147,27.554 11.946,27.417 11.894 C 27.279 11.841,27.167 11.702,27.167 11.586 C 27.167 11.469,27.046 11.274,26.899 11.152 C 26.752 11.030,26.566 10.757,26.486 10.546 C 26.405 10.334,26.158 10.092,25.936 10.007 C 25.714 9.923,25.483 9.774,25.423 9.677 C 25.363 9.580,25.157 9.500,24.965 9.500 C 24.622 9.500,24.623 9.506,25.000 9.833 M54.333 9.750 C 54.447 9.887,54.639 10.000,54.759 10.000 C 54.879 10.000,55.025 10.150,55.083 10.333 C 55.142 10.517,55.297 10.667,55.428 10.667 C 55.559 10.667,55.667 10.752,55.667 10.857 C 55.667 10.961,55.798 11.143,55.958 11.260 C 56.119 11.377,56.250 11.554,56.250 11.653 C 56.250 11.752,56.323 11.815,56.411 11.792 C 56.500 11.769,56.656 12.046,56.757 12.407 C 56.858 12.768,57.029 13.093,57.137 13.129 C 57.429 13.226,57.376 12.506,57.083 12.394 C 56.946 12.341,56.833 12.174,56.833 12.024 C 56.832 11.873,56.581 11.477,56.274 11.143 C 55.967 10.808,55.670 10.415,55.613 10.268 C 55.557 10.120,55.404 10.000,55.273 10.000 C 55.142 10.000,54.992 9.887,54.940 9.750 C 54.887 9.612,54.682 9.500,54.485 9.500 C 54.185 9.500,54.160 9.541,54.333 9.750 M46.878 11.803 C 46.764 11.874,46.643 12.155,46.608 12.425 C 46.573 12.695,46.578 12.785,46.617 12.625 C 46.657 12.465,46.797 12.333,46.928 12.333 C 47.059 12.333,47.167 12.183,47.167 12.000 C 47.167 11.625,47.162 11.622,46.878 11.803 M17.121 12.292 C 16.953 12.478,16.843 12.846,16.856 13.180 C 16.874 13.637,16.894 13.667,16.955 13.333 C 16.996 13.104,17.144 12.790,17.282 12.635 C 17.421 12.480,17.506 12.268,17.471 12.164 C 17.432 12.047,17.298 12.096,17.121 12.292 M57.250 14.667 C 57.250 15.383,57.306 15.933,57.375 15.891 C 57.444 15.848,57.500 15.298,57.500 14.667 C 57.500 14.036,57.444 13.485,57.375 13.443 C 57.306 13.400,57.250 13.951,57.250 14.667 M27.667 13.882 C 27.667 14.115,27.760 14.340,27.875 14.381 C 28.042 14.441,28.042 14.527,27.875 14.809 C 27.623 15.237,27.604 15.667,27.837 15.667 C 28.349 15.667,28.404 14.071,27.906 13.658 C 27.709 13.494,27.667 13.534,27.667 13.882 M46.075 13.891 C 45.880 14.666,46.058 15.576,46.417 15.643 C 46.736 15.703,46.738 15.692,46.458 15.381 C 46.101 14.984,46.077 14.237,46.417 14.106 C 46.740 13.982,46.742 13.500,46.420 13.500 C 46.284 13.500,46.129 13.676,46.075 13.891 M51.601 14.264 C 51.539 14.424,51.567 14.633,51.661 14.728 C 51.780 14.846,51.833 14.839,51.833 14.705 C 51.833 14.595,51.960 14.551,52.125 14.604 C 52.349 14.676,52.364 14.660,52.189 14.535 C 52.063 14.446,51.905 14.283,51.837 14.172 C 51.749 14.030,51.681 14.056,51.601 14.264 M22.160 14.337 C 21.968 14.456,21.962 14.528,22.126 14.693 C 22.240 14.807,22.334 14.829,22.336 14.742 C 22.337 14.655,22.411 14.696,22.500 14.833 C 22.631 15.037,22.662 15.015,22.664 14.718 C 22.667 14.276,22.484 14.137,22.160 14.337 M387.542 15.491 C 387.335 15.663,387.167 15.923,387.167 16.068 C 387.167 16.214,387.054 16.333,386.917 16.333 C 386.779 16.333,386.667 16.428,386.667 16.543 C 386.667 16.659,386.517 16.847,386.333 16.961 C 386.004 17.167,386.000 17.350,386.000 32.978 L 386.000 48.786 386.857 49.643 L 387.714 50.500 389.612 50.500 C 391.124 50.500,391.530 50.450,391.604 50.256 C 391.655 50.122,391.841 49.967,392.015 49.912 C 392.190 49.856,392.333 49.711,392.333 49.590 C 392.333 49.468,392.446 49.326,392.583 49.273 C 392.887 49.157,392.972 16.833,392.669 16.833 C 392.578 16.833,392.395 16.571,392.261 16.250 C 392.127 15.929,391.933 15.667,391.830 15.667 C 391.727 15.667,391.530 15.554,391.393 15.417 C 390.994 15.017,388.041 15.074,387.542 15.491 M16.897 16.082 C 16.912 16.589,16.987 16.753,17.212 16.773 C 17.400 16.790,17.418 16.772,17.263 16.723 C 17.126 16.680,16.988 16.375,16.948 16.031 L 16.877 15.417 16.897 16.082 M237.548 16.000 C 237.500 16.184,237.321 16.333,237.147 16.333 C 236.900 16.333,236.833 16.456,236.833 16.917 C 236.833 17.324,236.758 17.500,236.583 17.500 C 236.363 17.500,236.333 19.341,236.333 33.066 C 236.333 46.748,236.364 48.643,236.583 48.727 C 236.728 48.782,236.833 49.032,236.833 49.317 C 236.833 49.657,236.933 49.842,237.151 49.912 C 237.326 49.967,237.511 50.122,237.563 50.256 C 237.875 51.070,242.500 50.440,242.500 49.583 C 242.500 49.444,242.648 49.333,242.833 49.333 C 243.101 49.333,243.167 49.222,243.167 48.770 C 243.167 48.461,243.279 48.114,243.417 48.000 C 243.620 47.832,243.667 47.295,243.667 45.146 C 243.667 43.110,243.716 42.500,243.880 42.500 C 243.997 42.500,244.226 42.344,244.390 42.153 C 244.560 41.954,244.796 41.847,244.941 41.903 C 245.080 41.956,245.263 42.000,245.347 42.000 C 245.431 42.000,245.500 42.116,245.500 42.258 C 245.500 42.557,246.648 43.665,246.958 43.666 C 247.073 43.666,247.167 43.814,247.167 43.993 C 247.167 44.382,247.930 45.138,248.458 45.273 C 248.674 45.329,248.833 45.498,248.833 45.671 C 248.833 46.078,249.005 46.500,249.171 46.500 C 249.410 46.500,250.667 47.713,250.667 47.944 C 250.667 48.066,250.779 48.167,250.917 48.167 C 251.054 48.167,251.167 48.274,251.167 48.405 C 251.167 48.537,251.317 48.692,251.500 48.750 C 251.683 48.808,251.833 48.963,251.833 49.095 C 251.833 49.226,251.946 49.333,252.083 49.333 C 252.221 49.333,252.333 49.432,252.333 49.552 C 252.333 49.672,252.555 49.935,252.827 50.135 C 253.440 50.589,257.333 50.705,257.333 50.269 C 257.333 50.143,257.483 50.000,257.667 49.952 C 257.850 49.904,258.000 49.745,258.000 49.599 C 258.000 49.453,258.112 49.333,258.250 49.333 C 258.458 49.333,258.500 49.009,258.500 47.417 C 258.500 45.824,258.458 45.500,258.250 45.500 C 258.111 45.500,258.000 45.352,258.000 45.167 C 258.000 44.981,257.889 44.833,257.750 44.833 C 257.612 44.833,257.500 44.762,257.500 44.674 C 257.500 44.586,257.087 44.111,256.583 43.619 C 256.079 43.127,255.667 42.592,255.667 42.430 C 255.667 42.268,255.517 42.096,255.333 42.048 C 255.150 42.000,255.000 41.857,255.000 41.731 C 255.000 41.604,254.887 41.500,254.750 41.500 C 254.612 41.500,254.500 41.385,254.500 41.245 C 254.500 41.104,254.387 40.946,254.250 40.894 C 254.112 40.841,254.000 40.693,254.000 40.566 C 254.000 40.438,253.880 40.333,253.734 40.333 C 253.588 40.333,253.430 40.183,253.382 40.000 C 253.334 39.817,253.191 39.667,253.064 39.667 C 252.937 39.667,252.833 39.554,252.833 39.417 C 252.833 39.279,252.721 39.167,252.583 39.167 C 252.446 39.167,252.333 39.068,252.333 38.947 C 252.333 38.702,251.591 38.000,251.332 38.000 C 251.241 38.000,251.167 37.887,251.167 37.750 C 251.167 37.612,251.017 37.350,250.833 37.167 C 250.472 36.805,250.382 36.167,250.692 36.167 C 250.797 36.167,251.243 35.792,251.682 35.333 C 252.122 34.875,252.560 34.500,252.657 34.500 C 252.754 34.500,252.833 34.429,252.833 34.342 C 252.833 34.161,253.567 33.333,253.727 33.333 C 253.887 33.333,254.500 32.688,254.500 32.519 C 254.500 32.438,254.650 32.333,254.833 32.285 C 255.017 32.237,255.167 32.078,255.167 31.932 C 255.167 31.786,255.239 31.667,255.327 31.667 C 255.501 31.667,257.500 29.745,257.500 29.578 C 257.500 29.522,257.612 29.364,257.750 29.226 C 258.141 28.835,258.086 27.151,257.667 26.667 C 257.483 26.455,257.333 26.219,257.333 26.141 C 257.333 26.064,257.221 26.000,257.083 26.000 C 256.946 26.000,256.833 25.915,256.833 25.811 C 256.833 25.166,256.007 24.833,254.403 24.833 L 252.822 24.833 252.239 25.417 C 251.918 25.738,251.546 26.000,251.411 26.000 C 251.277 26.000,251.167 26.104,251.167 26.232 C 251.167 26.360,251.054 26.508,250.917 26.560 C 250.779 26.613,250.667 26.771,250.667 26.911 C 250.667 27.052,250.562 27.167,250.434 27.167 C 250.307 27.167,250.159 27.279,250.106 27.417 C 250.054 27.554,249.896 27.667,249.755 27.667 C 249.611 27.667,249.500 27.812,249.500 28.000 C 249.500 28.222,249.389 28.333,249.167 28.333 C 248.983 28.333,248.830 28.427,248.826 28.542 C 248.821 28.656,248.630 28.900,248.401 29.083 C 247.583 29.737,247.230 30.095,247.121 30.379 C 247.060 30.537,246.933 30.667,246.839 30.667 C 246.744 30.667,246.667 30.779,246.667 30.917 C 246.667 31.054,246.554 31.167,246.417 31.167 C 246.094 31.167,245.500 31.760,245.500 32.083 C 245.500 32.221,245.385 32.333,245.245 32.333 C 245.104 32.333,244.946 32.446,244.894 32.583 C 244.841 32.721,244.731 32.833,244.649 32.833 C 244.567 32.833,244.331 33.002,244.125 33.208 L 243.750 33.583 243.707 25.952 C 243.669 19.373,243.629 18.308,243.415 18.226 C 243.261 18.167,243.167 17.911,243.167 17.550 C 243.167 17.109,243.086 16.948,242.833 16.882 C 242.619 16.826,242.500 16.654,242.500 16.403 C 242.500 15.795,242.020 15.667,239.745 15.667 C 237.776 15.667,237.630 15.689,237.548 16.000 M46.500 16.657 C 46.500 16.926,46.559 17.184,46.632 17.228 C 46.704 17.273,46.734 17.053,46.697 16.738 C 46.615 16.038,46.500 15.990,46.500 16.657 M57.071 16.294 C 56.702 16.547,56.642 17.025,57.004 16.831 C 57.185 16.734,57.333 16.545,57.333 16.411 C 57.333 16.133,57.317 16.126,57.071 16.294 M262.667 16.583 C 262.667 16.721,262.552 16.833,262.411 16.833 C 262.271 16.833,262.108 16.965,262.049 17.125 C 261.990 17.285,261.842 17.477,261.721 17.550 C 261.383 17.754,261.409 21.384,261.750 21.667 C 261.887 21.781,262.000 21.980,262.000 22.109 C 262.000 22.238,262.131 22.393,262.292 22.453 C 262.452 22.513,262.671 22.680,262.778 22.823 C 263.042 23.175,267.346 23.213,267.462 22.864 C 267.502 22.744,267.715 22.577,267.934 22.493 C 268.154 22.410,268.333 22.235,268.333 22.105 C 268.333 21.975,268.446 21.826,268.583 21.773 C 268.787 21.695,268.833 21.291,268.833 19.589 C 268.833 17.843,268.792 17.500,268.583 17.500 C 268.446 17.500,268.333 17.380,268.333 17.234 C 268.333 17.088,268.183 16.930,268.000 16.882 C 267.817 16.834,267.667 16.691,267.667 16.564 C 267.667 16.378,267.184 16.333,265.167 16.333 C 263.056 16.333,262.667 16.372,262.667 16.583 M27.500 16.796 C 27.500 16.867,27.279 17.167,27.009 17.463 C 26.661 17.844,26.593 18.000,26.775 18.000 C 26.916 18.000,27.070 17.850,27.118 17.667 C 27.166 17.483,27.309 17.333,27.436 17.333 C 27.563 17.333,27.667 17.183,27.667 17.000 C 27.667 16.817,27.629 16.667,27.583 16.667 C 27.537 16.667,27.500 16.725,27.500 16.796 M331.925 17.099 C 331.779 17.245,331.456 17.418,331.208 17.485 C 330.890 17.570,330.711 17.763,330.604 18.136 C 330.520 18.428,330.350 18.667,330.226 18.667 C 329.794 18.667,329.901 49.172,330.333 49.285 C 330.517 49.333,330.668 49.457,330.670 49.561 C 330.684 50.495,334.508 50.992,335.333 50.167 C 335.517 49.983,335.770 49.833,335.897 49.833 C 336.167 49.833,336.328 49.330,336.331 48.479 C 336.332 48.146,336.446 47.781,336.583 47.667 C 336.793 47.492,336.833 46.795,336.833 43.313 L 336.833 39.167 341.292 39.164 C 345.929 39.162,346.500 39.114,346.500 38.731 C 346.500 38.581,346.693 38.500,347.051 38.500 C 347.355 38.500,347.749 38.390,347.926 38.255 C 348.104 38.121,348.381 38.008,348.542 38.005 C 348.702 38.002,348.970 37.863,349.138 37.696 C 349.305 37.528,349.568 37.343,349.721 37.284 C 349.874 37.225,350.000 37.100,350.000 37.005 C 350.000 36.809,350.603 36.168,350.792 36.164 C 351.082 36.157,351.667 35.336,351.667 34.935 C 351.667 34.655,351.758 34.500,351.922 34.500 C 352.062 34.500,352.225 34.369,352.284 34.208 C 352.343 34.048,352.491 33.857,352.612 33.783 C 352.734 33.710,352.833 33.429,352.833 33.158 C 352.833 32.854,352.920 32.667,353.061 32.667 C 353.315 32.667,353.500 31.649,353.500 30.245 C 353.500 29.620,353.572 29.341,353.750 29.273 C 354.090 29.143,354.110 26.915,353.773 26.717 C 353.621 26.627,353.517 26.094,353.456 25.093 C 353.390 23.997,353.296 23.551,353.100 23.408 C 352.953 23.301,352.833 23.121,352.833 23.008 C 352.833 22.895,352.683 22.612,352.500 22.379 C 352.317 22.146,352.167 21.853,352.167 21.728 C 352.167 21.602,352.064 21.500,351.938 21.500 C 351.811 21.500,351.665 21.281,351.611 21.013 C 351.553 20.722,351.376 20.483,351.169 20.417 C 350.980 20.357,350.695 20.107,350.537 19.862 C 350.125 19.223,349.360 18.500,349.095 18.500 C 348.971 18.500,348.826 18.387,348.773 18.250 C 348.720 18.112,348.534 18.000,348.359 18.000 C 348.184 18.000,347.947 17.887,347.833 17.750 C 347.719 17.612,347.503 17.500,347.352 17.500 C 347.202 17.500,346.799 17.350,346.456 17.167 C 345.594 16.704,332.381 16.642,331.925 17.099 M17.500 17.655 C 17.500 17.851,17.608 18.000,17.750 18.000 C 17.887 18.000,18.000 17.957,18.000 17.905 C 18.000 17.852,17.887 17.697,17.750 17.560 C 17.528 17.337,17.500 17.348,17.500 17.655 M151.542 17.447 C 151.335 17.489,151.167 17.630,151.167 17.762 C 151.167 17.893,151.022 18.000,150.845 18.000 C 149.961 18.000,150.000 17.267,150.000 33.915 C 150.000 49.278,150.014 49.833,150.415 49.833 C 150.532 49.833,150.667 49.983,150.715 50.167 C 150.833 50.619,169.767 50.701,169.940 50.250 C 169.992 50.112,170.172 50.000,170.338 50.000 C 170.818 50.000,171.167 49.817,171.167 49.566 C 171.167 49.419,171.350 49.333,171.667 49.333 C 172.000 49.333,172.167 49.250,172.167 49.083 C 172.167 48.944,172.315 48.833,172.500 48.833 C 172.683 48.833,172.970 48.696,173.138 48.529 C 173.305 48.362,173.568 48.176,173.721 48.117 C 173.874 48.059,174.000 47.867,174.000 47.692 C 174.000 47.517,174.112 47.281,174.250 47.167 C 174.387 47.053,174.500 46.865,174.500 46.749 C 174.500 46.633,174.650 46.500,174.833 46.452 C 175.076 46.388,175.167 46.224,175.167 45.849 C 175.167 45.502,175.248 45.333,175.417 45.333 C 175.610 45.333,175.667 45.115,175.667 44.367 C 175.667 43.835,175.746 43.320,175.843 43.223 C 176.090 42.977,176.100 39.200,175.855 38.955 C 175.749 38.849,175.667 38.233,175.667 37.550 C 175.667 36.580,175.616 36.333,175.417 36.333 C 175.279 36.333,175.167 36.189,175.167 36.014 C 175.167 35.517,174.987 35.167,174.732 35.167 C 174.604 35.167,174.500 35.054,174.500 34.917 C 174.500 34.779,174.387 34.667,174.250 34.667 C 174.112 34.667,174.000 34.551,174.000 34.409 C 174.000 34.151,173.518 33.638,172.833 33.167 C 172.633 33.029,172.252 32.759,171.987 32.567 L 171.504 32.218 172.169 31.621 C 172.534 31.293,172.833 30.906,172.833 30.762 C 172.833 30.618,172.941 30.500,173.072 30.500 C 173.203 30.500,173.356 30.357,173.412 30.182 C 173.467 30.007,173.622 29.822,173.756 29.771 C 174.116 29.633,174.121 21.703,173.762 21.565 C 173.631 21.514,173.447 21.254,173.354 20.987 C 173.260 20.719,173.105 20.500,173.009 20.500 C 172.912 20.500,172.833 20.391,172.833 20.258 C 172.833 19.988,172.075 19.167,171.826 19.167 C 171.738 19.167,171.667 19.058,171.667 18.924 C 171.667 18.779,171.433 18.638,171.083 18.572 C 170.749 18.510,170.500 18.364,170.500 18.231 C 170.500 18.083,170.311 18.000,169.971 18.000 C 169.681 18.000,169.298 17.869,169.121 17.708 C 168.810 17.427,152.807 17.189,151.542 17.447 M55.663 18.348 C 55.344 18.712,55.057 19.040,55.025 19.077 C 54.993 19.114,55.124 19.103,55.317 19.053 C 55.509 19.002,55.667 18.857,55.667 18.731 C 55.667 18.604,55.770 18.500,55.897 18.500 C 56.089 18.500,56.409 17.853,56.281 17.725 C 56.260 17.704,55.981 17.984,55.663 18.348 M25.200 19.200 C 24.965 19.435,24.939 19.667,25.147 19.667 C 25.228 19.667,25.334 19.517,25.382 19.333 C 25.483 18.944,25.467 18.933,25.200 19.200 M48.785 19.333 C 48.833 19.517,48.975 19.667,49.101 19.667 C 49.276 19.667,49.263 19.589,49.045 19.333 C 48.888 19.150,48.745 19.000,48.729 19.000 C 48.712 19.000,48.737 19.150,48.785 19.333 M22.852 19.941 C 22.688 20.125,22.442 20.177,22.018 20.115 C 21.504 20.040,21.471 20.053,21.789 20.204 C 22.237 20.418,23.522 20.187,23.625 19.875 C 23.724 19.577,23.129 19.628,22.852 19.941 M50.669 19.862 C 50.668 20.035,50.851 20.181,51.153 20.247 C 51.821 20.394,52.833 20.183,52.833 19.898 C 52.833 19.596,52.704 19.606,52.376 19.934 C 52.068 20.242,51.032 20.152,50.808 19.798 C 50.706 19.638,50.671 19.654,50.669 19.862 M344.191 23.458 C 344.540 23.619,344.827 23.844,344.829 23.958 C 344.831 24.073,344.918 24.167,345.023 24.167 C 345.332 24.167,346.000 24.989,346.000 25.370 C 346.000 25.565,346.131 25.869,346.292 26.046 C 346.528 26.307,346.583 26.680,346.583 28.000 C 346.583 29.320,346.528 29.693,346.292 29.954 C 346.131 30.131,346.000 30.477,346.000 30.721 C 346.000 31.006,345.910 31.167,345.750 31.167 C 345.611 31.167,345.500 31.315,345.500 31.500 C 345.500 31.685,345.389 31.833,345.250 31.833 C 345.113 31.833,345.000 31.946,345.000 32.083 C 345.000 32.235,344.845 32.333,344.604 32.333 C 344.386 32.333,344.114 32.446,344.000 32.583 C 343.828 32.791,343.203 32.833,340.313 32.833 L 336.833 32.833 336.833 28.000 L 336.833 23.167 340.195 23.167 C 343.045 23.167,343.654 23.211,344.191 23.458 M164.152 23.899 C 164.258 24.027,164.598 24.179,164.907 24.237 C 165.215 24.295,165.510 24.453,165.562 24.588 C 165.614 24.723,165.806 24.833,165.989 24.833 C 166.357 24.833,166.667 25.288,166.667 25.828 C 166.667 26.020,166.779 26.220,166.917 26.273 C 167.511 26.501,166.872 28.804,166.208 28.826 C 166.094 28.830,166.000 28.934,166.000 29.057 C 166.000 29.180,165.700 29.370,165.333 29.480 C 164.967 29.590,164.667 29.752,164.667 29.840 C 164.667 29.937,163.231 30.000,161.000 30.000 L 157.333 30.000 157.333 26.833 L 157.333 23.667 160.646 23.667 C 163.277 23.667,163.999 23.715,164.152 23.899 M187.894 24.583 C 187.829 24.752,187.564 24.833,187.075 24.833 C 186.678 24.833,186.306 24.909,186.248 25.003 C 186.191 25.096,185.887 25.279,185.572 25.411 C 185.257 25.542,185.000 25.728,185.000 25.825 C 185.000 25.921,184.773 26.000,184.495 26.000 C 184.199 26.000,183.950 26.104,183.894 26.250 C 183.841 26.387,183.712 26.500,183.606 26.500 C 183.501 26.500,183.041 26.878,182.583 27.340 C 182.125 27.802,181.580 28.251,181.371 28.337 C 181.141 28.433,180.953 28.691,180.892 28.997 C 180.837 29.274,180.689 29.500,180.563 29.500 C 180.436 29.500,180.333 29.575,180.333 29.667 C 180.333 29.758,180.183 29.983,180.000 30.167 C 179.817 30.350,179.667 30.650,179.667 30.833 C 179.667 31.019,179.556 31.167,179.417 31.167 C 179.237 31.167,179.167 31.350,179.167 31.813 C 179.167 32.171,179.060 32.548,178.927 32.658 C 178.795 32.767,178.637 33.259,178.576 33.751 C 178.510 34.276,178.369 34.681,178.232 34.734 C 177.884 34.867,177.895 40.609,178.245 41.108 C 178.379 41.301,178.540 41.774,178.602 42.160 C 178.663 42.546,178.816 42.901,178.940 42.949 C 179.084 43.004,179.167 43.305,179.167 43.773 C 179.167 44.275,179.247 44.541,179.417 44.606 C 179.554 44.659,179.667 44.814,179.667 44.950 C 179.667 45.086,179.817 45.237,180.000 45.285 C 180.183 45.333,180.333 45.504,180.333 45.666 C 180.333 45.827,180.446 46.053,180.583 46.167 C 180.721 46.281,180.833 46.515,180.833 46.687 C 180.833 46.862,180.950 47.000,181.099 47.000 C 181.245 47.000,181.404 47.150,181.452 47.333 C 181.500 47.517,181.643 47.667,181.769 47.667 C 181.896 47.667,182.000 47.779,182.000 47.917 C 182.000 48.056,182.148 48.167,182.333 48.167 C 182.556 48.167,182.667 48.278,182.667 48.500 C 182.667 48.746,182.778 48.833,183.089 48.833 C 183.321 48.833,183.554 48.946,183.606 49.083 C 183.659 49.221,183.836 49.333,183.998 49.333 C 184.161 49.333,184.334 49.483,184.382 49.667 C 184.433 49.861,184.609 50.000,184.806 50.000 C 184.991 50.000,185.255 50.112,185.393 50.250 C 185.553 50.410,185.964 50.500,186.534 50.500 C 187.220 50.500,187.492 50.577,187.711 50.833 C 188.204 51.409,195.000 51.313,195.000 50.731 C 195.000 50.558,195.271 50.500,196.075 50.500 C 196.790 50.500,197.195 50.426,197.283 50.279 C 197.357 50.158,197.548 50.010,197.708 49.951 C 197.869 49.892,198.000 49.729,198.000 49.589 C 198.000 49.415,198.163 49.333,198.505 49.333 C 198.801 49.333,199.050 49.229,199.106 49.083 C 199.159 48.946,199.289 48.833,199.394 48.833 C 199.500 48.833,199.680 48.683,199.795 48.500 C 199.909 48.317,200.152 48.167,200.335 48.167 C 200.517 48.167,200.667 48.103,200.667 48.024 C 200.667 47.946,200.854 47.680,201.083 47.432 C 201.313 47.185,201.500 46.874,201.500 46.741 C 201.500 46.609,201.612 46.500,201.750 46.500 C 201.887 46.500,202.000 46.385,202.000 46.245 C 202.000 46.104,202.112 45.946,202.250 45.894 C 202.387 45.841,202.500 45.710,202.500 45.603 C 202.500 45.495,202.650 45.279,202.833 45.122 C 203.045 44.940,203.167 44.630,203.167 44.269 C 203.167 43.919,203.262 43.666,203.417 43.606 C 203.562 43.551,203.667 43.301,203.667 43.014 C 203.667 42.724,203.782 42.452,203.943 42.362 C 204.134 42.255,204.244 41.906,204.299 41.229 C 204.342 40.690,204.480 40.102,204.606 39.921 C 204.933 39.449,204.916 36.412,204.582 35.773 C 204.445 35.510,204.332 35.060,204.331 34.773 C 204.328 33.999,204.158 33.500,203.897 33.500 C 203.745 33.500,203.667 33.302,203.667 32.917 C 203.667 32.509,203.591 32.333,203.417 32.333 C 203.232 32.333,203.167 32.140,203.167 31.589 C 203.167 31.016,203.090 30.804,202.833 30.667 C 202.650 30.569,202.500 30.381,202.500 30.250 C 202.500 30.118,202.237 29.749,201.917 29.428 C 201.596 29.107,201.333 28.729,201.333 28.589 C 201.333 28.448,201.230 28.333,201.103 28.333 C 200.976 28.333,200.836 28.195,200.792 28.025 C 200.744 27.842,200.499 27.675,200.189 27.613 C 199.808 27.537,199.667 27.416,199.667 27.168 C 199.667 26.943,199.469 26.734,199.083 26.550 C 198.762 26.397,198.500 26.210,198.500 26.136 C 198.500 26.061,198.273 26.000,197.995 26.000 C 197.709 26.000,197.450 25.896,197.398 25.760 C 197.347 25.628,197.082 25.471,196.808 25.411 C 196.535 25.351,196.270 25.196,196.221 25.068 C 196.161 24.912,195.865 24.833,195.333 24.833 C 194.778 24.833,194.507 24.757,194.440 24.583 C 194.359 24.373,193.837 24.333,191.167 24.333 C 188.496 24.333,187.974 24.373,187.894 24.583 M216.000 24.583 C 215.886 24.721,215.548 24.833,215.250 24.833 C 214.952 24.833,214.614 24.946,214.500 25.083 C 214.386 25.221,214.163 25.333,214.005 25.333 C 213.848 25.333,213.583 25.483,213.417 25.667 C 213.249 25.852,212.903 26.000,212.639 26.000 C 212.370 26.000,212.040 26.144,211.878 26.333 C 211.721 26.517,211.497 26.667,211.380 26.667 C 211.262 26.667,211.167 26.779,211.167 26.917 C 211.167 27.054,211.054 27.167,210.917 27.167 C 210.779 27.167,210.667 27.270,210.667 27.397 C 210.667 27.524,210.517 27.667,210.333 27.715 C 210.150 27.763,210.000 27.922,210.000 28.068 C 210.000 28.214,209.887 28.333,209.750 28.333 C 209.612 28.333,209.500 28.411,209.500 28.505 C 209.500 28.600,209.237 28.918,208.917 29.212 C 208.596 29.507,208.333 29.871,208.333 30.023 C 208.333 30.174,208.230 30.337,208.104 30.386 C 207.978 30.434,207.826 30.734,207.767 31.053 C 207.707 31.372,207.547 31.725,207.412 31.837 C 207.277 31.949,207.167 32.249,207.167 32.503 C 207.167 32.757,207.065 33.003,206.940 33.051 C 206.812 33.100,206.662 33.523,206.596 34.023 C 206.531 34.510,206.399 35.004,206.303 35.120 C 206.036 35.441,205.934 38.786,206.163 39.667 C 206.271 40.079,206.435 40.867,206.528 41.417 C 206.622 41.967,206.803 42.535,206.932 42.680 C 207.061 42.825,207.167 43.098,207.167 43.287 C 207.167 43.476,207.269 43.670,207.393 43.718 C 207.518 43.766,207.667 44.103,207.725 44.468 C 207.784 44.832,207.944 45.174,208.082 45.227 C 208.220 45.280,208.333 45.431,208.333 45.563 C 208.333 45.695,208.676 46.155,209.094 46.586 C 209.513 47.016,209.923 47.548,210.007 47.767 C 210.090 47.987,210.273 48.167,210.413 48.167 C 210.552 48.167,210.667 48.243,210.667 48.337 C 210.667 48.431,210.873 48.598,211.125 48.708 C 211.377 48.819,211.643 49.005,211.717 49.121 C 211.790 49.238,211.996 49.333,212.175 49.333 C 212.354 49.333,212.500 49.410,212.500 49.504 C 212.500 49.597,212.706 49.764,212.958 49.875 C 213.210 49.986,213.477 50.172,213.550 50.288 C 213.633 50.421,214.052 50.500,214.667 50.500 C 215.430 50.500,215.687 50.565,215.813 50.792 C 216.087 51.283,222.698 51.329,223.114 50.843 C 223.342 50.577,223.606 50.500,224.292 50.500 C 224.925 50.500,225.204 50.429,225.273 50.250 C 225.326 50.112,225.505 50.000,225.671 50.000 C 226.151 50.000,226.500 49.817,226.500 49.566 C 226.500 49.438,226.650 49.333,226.833 49.333 C 227.017 49.333,227.167 49.230,227.167 49.104 C 227.167 48.978,227.392 48.830,227.667 48.775 C 227.960 48.716,228.167 48.570,228.167 48.421 C 228.167 48.278,228.312 48.167,228.500 48.167 C 228.683 48.167,228.833 48.087,228.833 47.991 C 228.833 47.894,229.208 47.455,229.667 47.016 C 230.256 46.451,230.500 46.087,230.500 45.775 C 230.500 45.532,230.594 45.333,230.708 45.332 C 230.951 45.331,231.667 44.145,231.667 43.743 C 231.667 43.593,231.817 43.279,232.000 43.045 C 232.264 42.710,232.333 42.369,232.333 41.412 C 232.333 40.490,232.393 40.179,232.583 40.106 C 232.937 39.971,232.953 35.640,232.601 35.348 C 232.453 35.225,232.346 34.702,232.306 33.895 C 232.258 32.945,232.171 32.582,231.954 32.424 C 231.796 32.308,231.667 32.019,231.667 31.782 C 231.667 31.544,231.567 31.290,231.446 31.217 C 231.324 31.143,231.177 30.952,231.118 30.792 C 231.059 30.631,230.896 30.500,230.755 30.500 C 230.583 30.500,230.500 30.338,230.500 30.000 C 230.500 29.667,230.417 29.500,230.250 29.500 C 230.112 29.500,230.000 29.390,230.000 29.256 C 230.000 28.993,228.738 27.667,228.487 27.667 C 228.402 27.667,228.333 27.554,228.333 27.417 C 228.333 27.279,228.192 27.167,228.019 27.167 C 227.846 27.167,227.667 27.018,227.618 26.833 C 227.570 26.650,227.420 26.500,227.283 26.500 C 227.147 26.500,226.992 26.387,226.940 26.250 C 226.880 26.094,226.626 26.000,226.264 26.000 C 225.944 26.000,225.623 25.902,225.550 25.783 C 225.297 25.369,224.209 24.833,223.623 24.833 C 223.255 24.833,223.000 24.740,222.940 24.583 C 222.859 24.373,222.321 24.333,219.526 24.333 C 216.779 24.333,216.172 24.376,216.000 24.583 M283.833 24.583 C 283.833 24.751,283.666 24.833,283.328 24.833 C 283.042 24.833,282.783 24.937,282.731 25.073 C 282.680 25.205,282.426 25.360,282.167 25.417 C 281.907 25.474,281.653 25.628,281.602 25.760 C 281.552 25.892,281.357 26.000,281.170 26.000 C 280.983 26.000,280.702 26.150,280.545 26.333 C 280.388 26.517,280.169 26.667,280.059 26.667 C 279.948 26.667,279.823 26.798,279.782 26.958 C 279.740 27.119,279.697 26.969,279.686 26.625 C 279.673 26.211,279.588 26.000,279.434 26.000 C 279.307 26.000,279.159 25.887,279.106 25.750 C 279.054 25.613,278.896 25.500,278.755 25.500 C 278.615 25.500,278.500 25.396,278.500 25.268 C 278.500 24.914,278.113 24.833,276.417 24.833 L 274.861 24.833 274.151 25.458 C 273.760 25.802,273.304 26.215,273.137 26.375 C 272.640 26.852,272.668 48.668,273.167 49.167 C 273.350 49.350,273.500 49.577,273.500 49.671 C 273.500 49.765,273.720 49.886,273.989 49.940 C 274.258 49.993,274.519 50.141,274.567 50.269 C 274.703 50.623,278.500 50.605,278.500 50.250 C 278.500 50.112,278.612 50.000,278.750 50.000 C 279.133 50.000,279.667 49.381,279.667 48.937 C 279.667 48.719,279.776 48.450,279.909 48.340 C 280.112 48.171,280.159 46.966,280.200 40.771 L 280.250 33.402 280.875 32.759 C 281.219 32.405,281.500 32.015,281.500 31.891 C 281.500 31.768,281.607 31.667,281.738 31.667 C 281.869 31.667,282.076 31.566,282.199 31.444 C 282.322 31.321,282.756 31.176,283.163 31.122 C 283.571 31.067,283.991 30.905,284.096 30.761 C 284.341 30.426,285.323 30.422,285.566 30.754 C 285.668 30.893,286.051 31.055,286.417 31.114 C 287.148 31.230,287.820 31.632,287.828 31.958 C 287.831 32.073,287.946 32.167,288.083 32.167 C 288.271 32.167,288.333 32.368,288.333 32.980 C 288.333 33.499,288.424 33.867,288.583 34.000 C 288.799 34.179,288.833 35.224,288.833 41.522 C 288.833 48.630,288.843 48.845,289.167 49.122 C 289.350 49.279,289.500 49.498,289.500 49.609 C 289.500 49.720,289.643 49.856,289.818 49.912 C 289.993 49.967,290.178 50.122,290.229 50.256 C 290.369 50.620,294.300 50.614,294.440 50.250 C 294.492 50.112,294.642 50.000,294.773 50.000 C 294.904 50.000,295.059 49.869,295.118 49.708 C 295.177 49.548,295.324 49.357,295.446 49.283 C 295.797 49.071,295.769 31.626,295.417 31.333 C 295.243 31.190,295.167 30.807,295.167 30.089 C 295.167 29.263,295.099 28.990,294.833 28.750 C 294.650 28.584,294.500 28.308,294.500 28.136 C 294.500 27.964,294.387 27.780,294.250 27.727 C 294.112 27.674,294.000 27.535,294.000 27.417 C 294.000 27.299,293.895 27.162,293.766 27.112 C 293.637 27.063,293.481 26.792,293.419 26.511 C 293.325 26.083,293.228 26.000,292.820 26.000 C 292.509 26.000,292.333 25.914,292.333 25.761 C 292.333 25.630,292.190 25.477,292.015 25.422 C 291.841 25.366,291.655 25.211,291.604 25.077 C 291.550 24.936,291.293 24.833,290.993 24.833 C 290.709 24.833,290.364 24.721,290.226 24.583 C 290.022 24.379,289.413 24.333,286.905 24.333 C 284.286 24.333,283.833 24.370,283.833 24.583 M307.894 24.583 C 307.834 24.738,307.581 24.833,307.232 24.833 C 306.841 24.833,306.667 24.910,306.667 25.083 C 306.667 25.235,306.512 25.333,306.272 25.333 C 306.056 25.333,305.688 25.483,305.455 25.667 C 305.221 25.850,304.896 26.000,304.732 26.000 C 304.568 26.000,304.082 26.375,303.651 26.833 C 303.221 27.292,302.763 27.667,302.634 27.667 C 302.308 27.667,302.000 28.009,302.000 28.372 C 302.000 28.540,301.887 28.720,301.750 28.773 C 301.612 28.826,301.500 29.011,301.500 29.184 C 301.500 29.358,301.385 29.500,301.245 29.500 C 301.104 29.500,300.940 29.631,300.879 29.792 C 300.818 29.952,300.671 30.182,300.551 30.304 C 300.431 30.425,300.333 30.653,300.333 30.810 C 300.333 30.967,300.183 31.390,300.000 31.750 C 299.817 32.110,299.667 32.642,299.667 32.934 C 299.667 33.252,299.566 33.503,299.417 33.560 C 299.229 33.632,299.165 33.939,299.161 34.786 C 299.158 35.515,299.069 36.032,298.911 36.240 C 298.568 36.695,298.571 39.048,298.917 39.393 C 299.086 39.563,299.167 39.983,299.167 40.701 C 299.167 41.327,299.260 41.893,299.395 42.088 C 299.521 42.269,299.676 42.654,299.739 42.944 C 299.802 43.235,299.962 43.514,300.094 43.564 C 300.246 43.623,300.333 43.895,300.333 44.308 C 300.333 44.683,300.439 45.047,300.583 45.167 C 300.721 45.281,300.833 45.472,300.833 45.593 C 300.833 45.713,300.983 45.858,301.167 45.917 C 301.350 45.975,301.500 46.130,301.500 46.261 C 301.500 46.393,301.612 46.500,301.750 46.500 C 301.918 46.500,302.000 46.668,302.000 47.016 C 302.000 47.391,302.091 47.555,302.333 47.618 C 302.517 47.666,302.667 47.809,302.667 47.936 C 302.667 48.080,302.850 48.167,303.155 48.167 C 303.532 48.167,303.656 48.251,303.697 48.536 C 303.727 48.746,303.966 49.016,304.250 49.161 C 304.525 49.302,304.810 49.510,304.883 49.624 C 304.956 49.738,305.311 49.879,305.671 49.937 C 306.032 49.994,306.413 50.145,306.517 50.271 C 306.622 50.397,306.920 50.500,307.179 50.500 C 307.454 50.500,307.718 50.621,307.813 50.792 C 308.087 51.282,313.672 51.328,314.156 50.844 C 314.352 50.648,314.717 50.500,315.005 50.500 C 315.301 50.500,315.550 50.396,315.606 50.250 C 315.660 50.110,315.908 50.000,316.167 50.000 C 316.490 50.000,316.789 49.822,317.144 49.417 C 317.426 49.096,317.734 48.833,317.828 48.833 C 318.105 48.833,318.034 49.951,317.750 50.060 C 317.579 50.126,317.500 50.394,317.500 50.911 C 317.500 51.491,317.438 51.667,317.234 51.667 C 317.088 51.667,316.930 51.817,316.882 52.000 C 316.834 52.183,316.691 52.333,316.564 52.333 C 316.437 52.333,316.333 52.446,316.333 52.583 C 316.333 52.751,316.166 52.833,315.828 52.833 C 315.533 52.833,315.283 52.937,315.227 53.083 C 315.163 53.249,314.899 53.334,314.441 53.336 C 313.508 53.339,313.000 53.492,313.000 53.769 C 313.000 54.151,311.571 54.071,311.167 53.667 C 310.935 53.435,310.611 53.333,310.104 53.333 C 309.659 53.333,309.293 53.236,309.167 53.083 C 309.037 52.927,308.670 52.833,308.186 52.833 C 307.594 52.833,307.365 52.755,307.205 52.500 C 307.091 52.317,306.819 52.167,306.602 52.167 C 306.385 52.167,306.114 52.054,306.000 51.917 C 305.739 51.602,304.279 51.579,303.970 51.884 C 303.849 52.004,303.619 52.152,303.458 52.212 C 303.298 52.273,303.167 52.438,303.167 52.578 C 303.167 52.718,303.028 52.833,302.859 52.833 C 301.934 52.833,301.505 56.936,302.358 57.627 C 302.555 57.786,302.855 58.048,303.025 58.208 C 303.195 58.369,303.550 58.500,303.816 58.500 C 304.090 58.500,304.339 58.607,304.394 58.750 C 304.459 58.920,304.725 59.000,305.225 59.000 C 305.821 59.000,305.978 59.063,306.048 59.333 C 306.122 59.615,306.276 59.667,307.047 59.667 C 307.655 59.667,308.029 59.750,308.167 59.917 C 308.470 60.283,315.443 60.287,315.926 59.922 C 316.104 59.787,316.493 59.675,316.790 59.672 C 317.146 59.668,317.402 59.553,317.539 59.333 C 317.685 59.099,317.927 59.000,318.356 59.000 C 318.743 59.000,318.999 58.909,319.060 58.750 C 319.113 58.612,319.365 58.498,319.620 58.494 C 320.154 58.488,320.833 57.986,320.833 57.598 C 320.833 57.444,320.973 57.333,321.167 57.333 C 321.350 57.333,321.500 57.254,321.500 57.158 C 321.500 57.062,321.725 56.904,322.000 56.808 C 322.318 56.697,322.500 56.519,322.500 56.318 C 322.500 56.145,322.650 55.909,322.833 55.795 C 323.017 55.680,323.167 55.490,323.167 55.371 C 323.167 55.253,323.279 55.113,323.417 55.060 C 323.554 55.008,323.667 54.860,323.667 54.732 C 323.667 54.604,323.817 54.350,324.000 54.167 C 324.264 53.903,324.333 53.611,324.333 52.768 C 324.333 51.974,324.397 51.678,324.583 51.606 C 324.945 51.468,324.965 26.000,324.604 26.000 C 324.478 26.000,324.330 25.773,324.274 25.496 C 324.219 25.219,324.041 24.942,323.878 24.880 C 323.716 24.819,323.484 24.671,323.363 24.551 C 323.091 24.282,319.667 24.238,319.667 24.504 C 319.667 24.597,319.481 24.759,319.253 24.862 C 319.026 24.966,318.798 25.181,318.748 25.340 C 318.555 25.949,317.881 26.508,317.661 26.243 C 317.550 26.109,317.326 26.000,317.164 26.000 C 317.002 26.000,316.829 25.895,316.779 25.766 C 316.730 25.637,316.465 25.482,316.192 25.422 C 315.918 25.362,315.653 25.205,315.602 25.073 C 315.541 24.913,315.259 24.833,314.755 24.833 C 314.195 24.833,314.000 24.769,314.000 24.583 C 314.000 24.370,313.555 24.333,310.995 24.333 C 308.477 24.333,307.974 24.374,307.894 24.583 M364.167 24.583 C 364.053 24.721,363.789 24.833,363.581 24.833 C 363.373 24.833,363.163 24.936,363.114 25.062 C 363.066 25.188,362.683 25.343,362.263 25.406 C 361.763 25.481,361.500 25.603,361.500 25.760 C 361.500 25.892,361.357 26.000,361.182 26.000 C 361.007 26.000,360.434 26.412,359.909 26.917 C 359.385 27.421,358.890 27.833,358.811 27.833 C 358.732 27.833,358.667 27.929,358.667 28.046 C 358.667 28.163,358.517 28.388,358.333 28.545 C 358.150 28.702,358.000 28.973,358.000 29.147 C 358.000 29.322,357.887 29.508,357.750 29.560 C 357.613 29.613,357.500 29.841,357.500 30.067 C 357.500 30.331,357.381 30.515,357.167 30.583 C 356.960 30.649,356.833 30.836,356.833 31.074 C 356.833 31.286,356.721 31.553,356.583 31.667 C 356.408 31.812,356.333 32.198,356.333 32.960 C 356.333 33.803,356.268 34.095,356.042 34.260 C 355.781 34.450,355.750 34.818,355.750 37.667 C 355.750 40.516,355.781 40.883,356.042 41.073 C 356.268 41.239,356.333 41.531,356.333 42.373 C 356.333 43.135,356.408 43.521,356.583 43.667 C 356.721 43.781,356.833 44.047,356.833 44.259 C 356.833 44.498,356.960 44.684,357.167 44.750 C 357.381 44.818,357.500 45.002,357.500 45.266 C 357.500 45.492,357.613 45.720,357.750 45.773 C 357.887 45.826,358.000 46.011,358.000 46.184 C 358.000 46.358,358.107 46.500,358.239 46.500 C 358.370 46.500,358.530 46.666,358.595 46.869 C 358.729 47.292,359.554 48.167,359.819 48.167 C 359.917 48.167,360.091 48.317,360.205 48.500 C 360.320 48.683,360.508 48.833,360.623 48.833 C 360.739 48.833,360.833 48.946,360.833 49.083 C 360.833 49.221,360.946 49.333,361.083 49.333 C 361.221 49.333,361.483 49.483,361.667 49.667 C 361.873 49.873,362.222 50.000,362.583 50.000 C 362.991 50.000,363.167 50.075,363.167 50.250 C 363.167 50.425,363.343 50.500,363.750 50.500 C 364.134 50.500,364.333 50.578,364.333 50.729 C 364.333 51.302,369.999 51.395,370.712 50.833 C 370.945 50.650,371.333 50.500,371.573 50.500 C 371.814 50.500,372.054 50.387,372.106 50.250 C 372.159 50.112,372.359 50.000,372.551 50.000 C 372.881 50.000,374.187 49.225,374.306 48.958 C 374.396 48.755,374.666 48.816,374.672 49.042 C 374.679 49.309,375.253 50.000,375.467 50.000 C 375.557 50.000,375.674 50.112,375.727 50.250 C 375.805 50.452,376.190 50.500,377.745 50.500 C 379.342 50.500,379.667 50.458,379.667 50.250 C 379.667 50.112,379.779 50.000,379.917 50.000 C 380.361 50.000,380.833 49.365,380.833 48.768 C 380.833 48.419,380.929 48.166,381.083 48.106 C 381.302 48.023,381.333 46.680,381.333 37.417 C 381.333 28.154,381.302 26.811,381.083 26.727 C 380.929 26.668,380.833 26.414,380.833 26.066 C 380.833 25.695,380.754 25.500,380.603 25.500 C 380.476 25.500,380.333 25.350,380.285 25.167 C 380.237 24.983,380.078 24.833,379.932 24.833 C 379.786 24.833,379.667 24.721,379.667 24.583 C 379.667 24.376,379.342 24.333,377.745 24.333 C 376.190 24.333,375.805 24.381,375.727 24.583 C 375.674 24.721,375.527 24.833,375.399 24.833 C 375.271 24.833,375.167 24.983,375.167 25.167 C 375.167 25.352,375.056 25.500,374.917 25.500 C 374.779 25.500,374.667 25.613,374.667 25.750 C 374.667 26.079,373.900 26.082,373.774 25.753 C 373.722 25.617,373.370 25.457,372.992 25.396 C 372.614 25.336,372.266 25.184,372.218 25.060 C 372.169 24.933,371.891 24.833,371.586 24.833 C 371.286 24.833,370.947 24.721,370.833 24.583 C 370.662 24.377,370.075 24.333,367.500 24.333 C 364.925 24.333,364.338 24.377,364.167 24.583 M81.750 25.167 C 81.584 25.350,81.362 25.500,81.256 25.500 C 80.956 25.500,80.333 26.440,80.333 26.892 C 80.333 27.115,80.221 27.341,80.083 27.394 C 79.710 27.537,79.705 47.767,80.078 48.260 C 80.213 48.438,80.325 48.775,80.328 49.010 C 80.334 49.501,81.096 50.500,81.464 50.500 C 81.601 50.500,81.809 50.631,81.927 50.792 C 82.101 51.031,82.401 51.083,83.583 51.083 C 84.766 51.083,85.065 51.031,85.240 50.792 C 85.357 50.631,85.576 50.500,85.727 50.500 C 85.877 50.500,86.000 50.387,86.000 50.250 C 86.000 50.112,86.112 50.000,86.250 50.000 C 86.389 50.000,86.500 49.852,86.500 49.667 C 86.500 49.483,86.604 49.333,86.732 49.333 C 87.144 49.333,87.167 48.918,87.167 41.338 C 87.167 34.853,87.200 33.856,87.417 33.773 C 87.554 33.720,87.667 33.487,87.667 33.255 C 87.667 33.023,87.752 32.833,87.856 32.833 C 88.078 32.833,88.833 32.054,88.833 31.825 C 88.833 31.738,89.023 31.667,89.255 31.667 C 89.487 31.667,89.720 31.554,89.773 31.417 C 89.826 31.279,90.048 31.167,90.268 31.167 C 90.487 31.167,90.817 31.017,91.000 30.833 C 91.394 30.439,92.333 30.375,92.333 30.742 C 92.333 30.888,92.569 31.029,92.923 31.096 C 93.306 31.167,93.814 31.492,94.372 32.022 L 95.232 32.837 95.344 40.543 C 95.456 48.230,95.515 49.099,95.950 49.420 C 96.077 49.513,96.273 49.775,96.386 50.003 C 96.504 50.239,96.769 50.441,97.004 50.474 C 97.231 50.506,97.477 50.637,97.550 50.766 C 97.748 51.115,100.593 51.100,100.727 50.750 C 100.780 50.612,100.925 50.500,101.049 50.500 C 101.321 50.500,102.000 49.808,102.000 49.531 C 102.000 49.422,102.112 49.333,102.250 49.333 C 102.469 49.333,102.500 48.361,102.500 41.583 C 102.500 35.046,102.537 33.833,102.734 33.833 C 102.862 33.833,103.046 33.608,103.142 33.333 C 103.238 33.058,103.395 32.833,103.491 32.833 C 103.588 32.833,103.667 32.748,103.667 32.644 C 103.667 32.344,104.484 31.667,104.847 31.667 C 105.029 31.667,105.220 31.554,105.273 31.417 C 105.326 31.279,105.538 31.167,105.745 31.167 C 105.952 31.167,106.312 31.017,106.545 30.833 C 107.036 30.447,107.833 30.385,107.833 30.732 C 107.833 30.859,108.040 31.012,108.292 31.071 C 109.023 31.242,109.717 31.669,110.167 32.223 L 110.583 32.736 110.631 40.293 C 110.672 46.736,110.715 47.863,110.923 47.942 C 111.079 48.002,111.167 48.269,111.167 48.684 C 111.167 49.041,111.240 49.333,111.329 49.333 C 111.418 49.333,111.609 49.561,111.753 49.839 C 111.924 50.170,112.183 50.378,112.503 50.442 C 112.772 50.496,113.078 50.644,113.183 50.770 C 113.459 51.102,115.555 51.086,115.833 50.750 C 115.947 50.612,116.200 50.499,116.395 50.497 C 116.843 50.494,116.979 50.392,117.543 49.636 L 118.000 49.022 118.000 40.245 C 118.000 33.165,117.956 31.365,117.771 30.942 C 117.645 30.653,117.454 30.098,117.348 29.708 C 117.241 29.319,117.081 29.000,116.993 29.000 C 116.905 29.000,116.833 28.850,116.833 28.667 C 116.833 28.481,116.722 28.333,116.583 28.333 C 116.419 28.333,116.333 28.169,116.333 27.856 C 116.333 27.322,115.770 26.500,115.405 26.500 C 115.274 26.500,115.167 26.387,115.167 26.250 C 115.167 26.111,115.019 26.000,114.833 26.000 C 114.648 26.000,114.500 25.889,114.500 25.750 C 114.500 25.613,114.436 25.500,114.359 25.500 C 114.281 25.500,114.045 25.350,113.833 25.167 C 113.472 24.854,113.210 24.833,109.497 24.833 C 105.797 24.833,105.518 24.855,105.121 25.167 C 104.888 25.350,104.616 25.500,104.515 25.500 C 104.415 25.500,104.333 25.613,104.333 25.750 C 104.333 25.889,104.185 26.000,104.000 26.000 C 103.817 26.000,103.667 26.103,103.667 26.229 C 103.667 26.355,103.442 26.503,103.167 26.558 C 102.892 26.613,102.667 26.764,102.667 26.893 C 102.667 27.022,102.517 27.167,102.333 27.215 C 102.148 27.263,102.000 27.442,102.000 27.618 C 102.000 28.043,101.682 28.333,101.217 28.333 C 100.902 28.333,100.833 28.244,100.833 27.835 C 100.833 27.309,100.259 26.500,99.887 26.500 C 99.766 26.500,99.667 26.387,99.667 26.250 C 99.667 26.113,99.554 26.000,99.417 26.000 C 99.279 26.000,99.167 25.926,99.167 25.836 C 99.167 25.745,98.913 25.565,98.604 25.436 C 98.294 25.307,97.990 25.118,97.927 25.017 C 97.694 24.640,90.209 24.776,89.712 25.167 C 89.479 25.350,89.186 25.500,89.061 25.500 C 88.936 25.500,88.833 25.613,88.833 25.750 C 88.833 25.887,88.721 26.000,88.583 26.000 C 88.446 26.000,88.333 26.113,88.333 26.250 C 88.333 26.397,88.179 26.501,87.958 26.503 C 87.752 26.504,87.475 26.574,87.342 26.658 C 87.041 26.848,86.500 26.582,86.500 26.244 C 86.500 26.110,86.388 26.000,86.250 26.000 C 86.112 26.000,86.000 25.893,86.000 25.761 C 86.000 25.630,85.857 25.477,85.682 25.422 C 85.507 25.366,85.322 25.211,85.271 25.077 C 85.110 24.658,82.142 24.734,81.750 25.167 M124.399 25.068 C 124.350 25.198,124.112 25.353,123.870 25.413 C 123.628 25.474,123.240 25.714,123.007 25.948 L 122.583 26.371 122.583 36.168 C 122.583 45.265,122.604 45.988,122.875 46.287 C 123.035 46.465,123.167 46.689,123.167 46.787 C 123.167 46.885,123.272 47.005,123.401 47.054 C 123.530 47.104,123.686 47.374,123.748 47.655 C 123.809 47.937,123.966 48.167,124.097 48.167 C 124.227 48.167,124.333 48.317,124.333 48.500 C 124.333 48.685,124.444 48.833,124.583 48.833 C 124.721 48.833,124.833 48.946,124.833 49.083 C 124.833 49.222,124.981 49.333,125.167 49.333 C 125.350 49.333,125.500 49.412,125.500 49.508 C 125.500 49.929,126.423 50.490,127.125 50.495 C 127.628 50.498,127.833 50.570,127.833 50.740 C 127.833 51.300,134.709 51.350,135.020 50.792 C 135.141 50.575,135.396 50.500,136.008 50.500 C 136.584 50.500,136.833 50.433,136.833 50.278 C 136.833 50.156,137.096 49.975,137.417 49.877 C 137.977 49.705,138.264 49.863,137.750 50.060 C 137.593 50.120,137.500 50.375,137.500 50.743 C 137.500 51.150,137.398 51.395,137.167 51.539 C 136.983 51.653,136.833 51.879,136.833 52.040 C 136.833 52.201,136.721 52.333,136.583 52.333 C 136.446 52.333,136.333 52.446,136.333 52.583 C 136.333 52.721,136.229 52.833,136.101 52.833 C 135.973 52.833,135.829 52.936,135.781 53.062 C 135.733 53.188,135.360 53.341,134.952 53.403 C 134.545 53.464,134.070 53.621,133.898 53.752 C 133.450 54.091,130.950 54.092,130.669 53.753 C 130.557 53.618,130.098 53.458,129.649 53.399 C 129.122 53.329,128.833 53.210,128.833 53.062 C 128.833 52.911,128.632 52.833,128.245 52.833 C 127.875 52.833,127.620 52.740,127.560 52.583 C 127.496 52.415,127.232 52.333,126.753 52.333 C 126.323 52.333,125.958 52.433,125.833 52.583 C 125.719 52.721,125.485 52.833,125.313 52.833 C 124.948 52.833,124.333 53.396,124.333 53.731 C 124.333 53.857,124.183 54.000,124.000 54.048 C 123.805 54.099,123.667 54.276,123.667 54.472 C 123.667 54.658,123.554 54.922,123.417 55.060 C 123.262 55.214,123.167 55.623,123.167 56.134 C 123.167 56.664,123.256 57.033,123.417 57.167 C 123.554 57.281,123.667 57.474,123.667 57.595 C 123.667 57.717,123.785 57.883,123.929 57.964 C 124.073 58.044,124.281 58.292,124.391 58.513 C 124.546 58.826,124.746 58.928,125.278 58.967 C 125.794 59.005,125.987 59.098,126.051 59.342 C 126.121 59.610,126.283 59.667,126.984 59.667 C 127.628 59.667,127.833 59.727,127.833 59.917 C 127.833 60.132,128.405 60.167,131.980 60.167 C 135.462 60.167,136.159 60.127,136.333 59.917 C 136.454 59.771,136.818 59.667,137.203 59.667 C 137.724 59.667,137.883 59.596,137.952 59.333 C 138.024 59.057,138.179 59.000,138.853 59.000 C 139.465 59.000,139.667 58.938,139.667 58.750 C 139.667 58.612,139.779 58.500,139.917 58.500 C 140.054 58.500,140.317 58.350,140.500 58.167 C 140.683 57.983,140.946 57.833,141.083 57.833 C 141.221 57.833,141.333 57.721,141.333 57.583 C 141.333 57.444,141.481 57.333,141.667 57.333 C 141.850 57.333,142.000 57.229,142.000 57.101 C 142.000 56.973,142.112 56.826,142.250 56.773 C 142.387 56.720,142.500 56.562,142.500 56.422 C 142.500 56.282,142.562 56.167,142.637 56.167 C 142.884 56.167,143.667 54.813,143.667 54.386 C 143.667 54.157,143.817 53.779,144.000 53.545 C 144.198 53.293,144.333 52.869,144.333 52.498 C 144.333 52.147,144.443 51.783,144.583 51.667 C 144.801 51.486,144.833 49.909,144.833 39.335 L 144.833 27.212 144.464 26.731 C 144.261 26.466,143.999 26.190,143.881 26.117 C 143.763 26.043,143.667 25.890,143.667 25.775 C 143.667 25.661,143.404 25.472,143.083 25.356 C 142.762 25.240,142.500 25.075,142.500 24.989 C 142.500 24.735,140.224 24.800,139.962 25.061 C 139.837 25.187,139.550 25.346,139.326 25.416 C 139.101 25.486,138.713 25.777,138.465 26.063 L 138.014 26.583 138.007 34.042 C 138.001 40.557,137.968 41.500,137.750 41.500 C 137.588 41.500,137.500 41.663,137.500 41.963 C 137.500 42.220,137.352 42.553,137.167 42.711 C 136.983 42.868,136.833 43.147,136.833 43.332 C 136.833 43.518,136.723 43.667,136.583 43.667 C 136.446 43.667,136.333 43.771,136.333 43.899 C 136.333 44.026,136.132 44.181,135.885 44.243 C 135.639 44.305,135.351 44.473,135.246 44.617 C 134.694 45.371,130.500 44.652,130.500 43.804 C 130.500 43.728,130.387 43.667,130.250 43.667 C 130.087 43.667,130.000 43.504,130.000 43.199 C 130.000 42.941,129.890 42.585,129.755 42.407 C 129.550 42.135,129.510 41.012,129.505 35.398 C 129.499 27.550,129.488 27.424,128.730 26.597 C 128.420 26.258,128.167 25.879,128.167 25.754 C 128.167 25.629,127.937 25.476,127.655 25.414 C 127.374 25.352,127.104 25.196,127.054 25.068 C 126.926 24.733,124.528 24.733,124.399 25.068 M263.167 25.011 C 263.167 25.109,262.904 25.437,262.583 25.739 C 262.216 26.086,262.000 26.445,262.000 26.710 C 262.000 26.942,261.887 27.174,261.750 27.227 C 261.531 27.311,261.500 28.635,261.500 37.745 C 261.500 46.898,261.530 48.167,261.750 48.167 C 261.917 48.167,262.000 48.333,262.000 48.667 C 262.000 49.028,262.185 49.352,262.667 49.833 L 263.333 50.500 265.167 50.500 C 266.778 50.500,267.040 50.460,267.333 50.167 C 267.517 49.983,267.778 49.833,267.915 49.833 C 268.076 49.833,268.201 49.596,268.271 49.155 C 268.331 48.783,268.482 48.376,268.606 48.251 C 268.964 47.893,268.941 27.364,268.583 27.227 C 268.438 27.171,268.333 26.922,268.333 26.633 C 268.333 26.276,268.239 26.111,268.000 26.048 C 267.817 26.000,267.665 25.876,267.664 25.772 C 267.654 25.098,266.908 24.833,265.018 24.833 C 263.817 24.833,263.167 24.896,263.167 25.011 M8.747 43.083 C 8.747 52.250,8.767 56.024,8.792 51.471 C 8.816 46.918,8.816 39.418,8.792 34.804 C 8.767 30.191,8.747 33.917,8.747 43.083 M69.925 28.088 C 69.655 28.398,69.280 28.683,69.092 28.720 C 68.837 28.771,68.867 28.794,69.207 28.811 C 69.501 28.825,69.738 28.714,69.872 28.500 C 69.987 28.317,70.175 28.167,70.290 28.167 C 70.406 28.167,70.500 28.017,70.500 27.833 C 70.500 27.417,70.515 27.410,69.925 28.088 M67.167 29.439 C 67.167 29.523,67.459 29.564,67.816 29.530 C 68.589 29.456,69.592 29.873,70.119 30.487 C 70.441 30.862,70.489 30.877,70.494 30.602 C 70.507 29.942,69.710 29.478,68.392 29.378 C 67.689 29.325,67.167 29.351,67.167 29.439 M65.875 29.934 C 65.669 30.169,65.500 30.465,65.500 30.592 C 65.500 30.926,65.951 30.704,66.051 30.322 C 66.099 30.140,66.280 30.000,66.467 30.000 C 66.649 30.000,66.841 29.887,66.894 29.750 C 67.057 29.323,66.288 29.462,65.875 29.934 M191.833 30.744 C 191.833 30.912,192.096 31.023,192.667 31.099 C 193.208 31.171,193.500 31.290,193.500 31.438 C 193.500 31.588,193.700 31.667,194.083 31.667 C 194.491 31.667,194.667 31.742,194.667 31.917 C 194.667 32.054,194.779 32.167,194.917 32.167 C 195.054 32.167,195.168 32.260,195.170 32.375 C 195.173 32.629,195.892 33.333,196.148 33.333 C 196.250 33.333,196.333 33.561,196.333 33.839 C 196.333 34.134,196.437 34.384,196.583 34.440 C 196.721 34.492,196.833 34.678,196.833 34.853 C 196.833 35.027,196.983 35.298,197.167 35.455 C 197.468 35.713,197.500 35.947,197.500 37.869 C 197.500 39.817,197.472 40.015,197.167 40.205 C 196.963 40.333,196.833 40.594,196.833 40.879 C 196.833 41.138,196.723 41.386,196.583 41.440 C 196.446 41.492,196.333 41.697,196.333 41.894 C 196.333 42.092,196.183 42.347,196.000 42.461 C 195.817 42.576,195.667 42.781,195.667 42.918 C 195.667 43.055,195.557 43.167,195.422 43.167 C 195.288 43.167,194.932 43.373,194.631 43.625 C 193.208 44.816,193.159 44.833,191.173 44.833 C 189.649 44.833,189.333 44.790,189.333 44.583 C 189.333 44.444,189.185 44.333,188.998 44.333 C 188.814 44.333,188.535 44.183,188.378 44.000 C 188.221 43.817,188.005 43.667,187.897 43.667 C 187.790 43.667,187.659 43.554,187.606 43.417 C 187.554 43.279,187.396 43.167,187.255 43.167 C 187.115 43.167,187.000 43.054,187.000 42.917 C 187.000 42.779,186.887 42.667,186.750 42.667 C 186.611 42.667,186.500 42.519,186.500 42.333 C 186.500 42.148,186.389 42.000,186.250 42.000 C 186.086 42.000,186.000 41.836,186.000 41.520 C 186.000 41.257,185.896 40.954,185.768 40.848 C 185.641 40.743,185.487 40.327,185.427 39.925 C 185.366 39.523,185.208 39.104,185.075 38.993 C 184.742 38.717,184.737 36.860,185.069 36.732 C 185.203 36.681,185.354 36.292,185.417 35.833 C 185.480 35.375,185.630 34.986,185.764 34.934 C 185.920 34.875,186.000 34.586,186.000 34.089 C 186.000 33.504,186.061 33.333,186.269 33.333 C 186.580 33.333,187.667 32.207,187.667 31.884 C 187.667 31.748,187.879 31.667,188.238 31.667 C 188.552 31.667,188.911 31.566,189.034 31.442 C 189.157 31.319,189.530 31.167,189.862 31.105 C 190.195 31.042,190.558 30.881,190.670 30.746 C 190.941 30.420,191.833 30.419,191.833 30.744 M220.288 30.833 C 220.521 31.017,220.894 31.167,221.118 31.167 C 221.341 31.167,221.636 31.279,221.774 31.417 C 221.911 31.554,222.273 31.667,222.577 31.667 C 223.013 31.667,223.151 31.747,223.225 32.043 C 223.277 32.250,223.660 32.770,224.076 33.198 C 224.544 33.680,224.833 34.129,224.833 34.374 C 224.833 34.592,224.983 34.931,225.167 35.128 C 225.591 35.584,225.685 40.227,225.273 40.385 C 225.149 40.432,224.960 40.815,224.854 41.236 C 224.748 41.656,224.588 42.000,224.498 42.000 C 224.407 42.000,224.333 42.071,224.333 42.158 C 224.333 42.388,223.578 43.167,223.356 43.167 C 223.252 43.167,223.167 43.279,223.167 43.417 C 223.167 43.554,223.054 43.667,222.917 43.667 C 222.779 43.667,222.667 43.745,222.667 43.842 C 222.667 43.938,222.404 44.127,222.083 44.261 C 221.762 44.395,221.500 44.578,221.500 44.669 C 221.500 44.963,217.507 44.880,217.394 44.583 C 217.341 44.446,217.201 44.333,217.083 44.333 C 216.965 44.333,216.828 44.227,216.779 44.098 C 216.691 43.869,216.055 43.453,215.458 43.235 C 215.298 43.176,215.167 42.986,215.167 42.812 C 215.167 42.639,215.017 42.368,214.833 42.211 C 214.650 42.054,214.500 41.830,214.500 41.713 C 214.500 41.596,214.387 41.500,214.250 41.500 C 214.112 41.500,214.000 41.364,214.000 41.199 C 214.000 41.033,213.890 40.751,213.755 40.574 C 213.390 40.091,213.385 35.000,213.750 35.000 C 213.906 35.000,214.000 34.842,214.000 34.578 C 214.000 34.346,214.112 34.113,214.250 34.060 C 214.387 34.008,214.500 33.822,214.500 33.649 C 214.500 33.475,214.608 33.333,214.741 33.333 C 214.873 33.333,215.080 33.127,215.200 32.875 C 215.320 32.623,215.587 32.343,215.792 32.252 C 215.998 32.162,216.167 31.993,216.167 31.877 C 216.167 31.761,216.349 31.667,216.571 31.667 C 216.794 31.667,217.089 31.554,217.226 31.417 C 217.364 31.279,217.661 31.167,217.886 31.167 C 218.112 31.167,218.473 31.019,218.690 30.839 C 219.197 30.417,219.756 30.415,220.288 30.833 M312.402 30.758 C 312.518 30.917,312.975 31.055,313.587 31.116 C 314.153 31.173,314.641 31.313,314.717 31.441 C 314.790 31.565,314.920 31.667,315.006 31.667 C 315.245 31.667,315.833 32.215,315.833 32.437 C 315.833 32.546,316.058 32.712,316.333 32.808 C 316.712 32.940,316.833 33.085,316.833 33.407 C 316.833 33.650,316.975 33.919,317.167 34.039 C 317.385 34.175,317.500 34.427,317.500 34.770 C 317.500 35.057,317.612 35.386,317.750 35.500 C 317.947 35.664,318.000 36.138,318.000 37.750 C 318.000 39.362,317.947 39.836,317.750 40.000 C 317.606 40.119,317.500 40.483,317.500 40.854 C 317.500 41.301,317.427 41.500,317.263 41.500 C 317.133 41.500,316.977 41.725,316.917 42.000 C 316.856 42.275,316.740 42.500,316.658 42.500 C 316.577 42.500,316.142 42.877,315.693 43.339 C 314.973 44.077,314.772 44.190,314.006 44.280 C 313.511 44.339,313.100 44.480,313.051 44.608 C 312.925 44.935,311.108 44.915,310.833 44.583 C 310.719 44.446,310.391 44.332,310.105 44.331 C 309.332 44.328,308.833 44.158,308.833 43.897 C 308.833 43.770,308.729 43.667,308.601 43.667 C 308.473 43.667,308.326 43.554,308.273 43.417 C 308.220 43.279,308.062 43.167,307.922 43.167 C 307.782 43.167,307.667 43.062,307.667 42.934 C 307.667 42.807,307.561 42.662,307.432 42.612 C 307.304 42.563,307.148 42.292,307.086 42.011 C 307.024 41.730,306.867 41.500,306.737 41.500 C 306.607 41.500,306.500 41.364,306.500 41.199 C 306.500 41.033,306.390 40.751,306.255 40.574 C 306.121 40.396,306.008 40.014,306.005 39.726 C 306.002 39.418,305.897 39.163,305.750 39.106 C 305.563 39.035,305.500 38.734,305.500 37.910 C 305.500 37.154,305.578 36.731,305.750 36.560 C 305.887 36.422,306.000 36.023,306.000 35.673 C 306.000 35.260,306.088 35.002,306.250 34.940 C 306.387 34.887,306.500 34.672,306.500 34.462 C 306.500 34.252,306.650 33.987,306.833 33.872 C 307.022 33.754,307.167 33.483,307.167 33.249 C 307.167 33.020,307.242 32.833,307.333 32.833 C 307.536 32.833,308.833 31.557,308.833 31.358 C 308.833 31.280,309.412 31.167,310.119 31.107 C 310.998 31.033,311.448 30.920,311.544 30.749 C 311.725 30.426,312.162 30.430,312.402 30.758 M369.349 30.764 C 369.509 30.909,369.961 31.071,370.352 31.124 C 370.829 31.188,371.214 31.375,371.526 31.693 C 371.780 31.953,372.066 32.167,372.161 32.167 C 372.256 32.167,372.335 32.260,372.336 32.375 C 372.340 32.629,373.059 33.333,373.315 33.333 C 373.417 33.333,373.500 33.587,373.500 33.896 C 373.500 34.206,373.613 34.553,373.750 34.667 C 373.901 34.792,374.000 35.157,374.000 35.592 C 374.000 36.008,374.105 36.415,374.250 36.560 C 374.407 36.717,374.500 37.127,374.500 37.667 C 374.500 38.206,374.407 38.616,374.250 38.774 C 374.104 38.920,374.000 39.327,374.000 39.750 C 374.000 40.173,373.896 40.580,373.750 40.726 C 373.613 40.864,373.500 41.207,373.500 41.488 C 373.500 41.770,373.429 42.000,373.342 42.000 C 373.112 42.000,372.333 42.755,372.333 42.977 C 372.333 43.082,372.256 43.167,372.161 43.167 C 372.066 43.167,371.775 43.386,371.513 43.654 C 371.185 43.989,370.799 44.176,370.274 44.255 C 369.854 44.318,369.424 44.474,369.318 44.601 C 369.065 44.906,367.732 44.911,367.616 44.608 C 367.565 44.477,367.141 44.337,366.597 44.273 C 365.757 44.174,365.585 44.081,364.863 43.332 C 364.422 42.874,363.972 42.500,363.864 42.500 C 363.755 42.500,363.667 42.284,363.667 42.020 C 363.667 41.757,363.564 41.455,363.437 41.351 C 363.311 41.246,363.161 40.862,363.102 40.497 C 363.034 40.068,362.908 39.833,362.748 39.833 C 362.541 39.833,362.500 39.474,362.500 37.667 C 362.500 35.859,362.541 35.500,362.748 35.500 C 362.908 35.500,363.034 35.265,363.102 34.836 C 363.161 34.472,363.311 34.087,363.437 33.983 C 363.564 33.878,363.667 33.577,363.667 33.313 C 363.667 32.991,363.752 32.833,363.925 32.833 C 364.167 32.833,364.683 32.364,365.312 31.570 C 365.504 31.328,365.863 31.190,366.493 31.115 C 367.041 31.050,367.455 30.907,367.541 30.754 C 367.733 30.411,368.966 30.418,369.349 30.764 M51.375 31.777 C 51.260 31.823,51.167 31.967,51.167 32.097 C 51.167 32.227,51.054 32.333,50.917 32.333 C 50.779 32.333,50.667 32.446,50.667 32.583 C 50.667 32.721,50.547 32.833,50.401 32.833 C 50.255 32.833,50.096 32.983,50.048 33.167 C 50.000 33.350,49.857 33.500,49.731 33.500 C 49.604 33.500,49.500 33.612,49.500 33.750 C 49.500 33.887,49.417 34.000,49.315 34.000 C 49.059 34.000,48.340 34.704,48.336 34.958 C 48.335 35.073,48.221 35.167,48.083 35.167 C 47.946 35.167,47.833 35.244,47.833 35.339 C 47.833 35.433,47.712 35.557,47.564 35.614 C 47.268 35.727,47.137 35.841,45.357 37.514 C 44.683 38.148,44.064 38.667,43.982 38.667 C 43.900 38.667,43.833 38.779,43.833 38.917 C 43.833 39.054,43.748 39.167,43.644 39.167 C 43.422 39.167,42.667 39.946,42.667 40.175 C 42.667 40.262,42.573 40.335,42.458 40.336 C 42.204 40.340,41.500 41.059,41.500 41.315 C 41.500 41.417,41.426 41.500,41.335 41.500 C 41.107 41.500,38.667 43.922,38.667 44.149 C 38.667 44.250,38.552 44.333,38.411 44.333 C 38.271 44.333,38.113 44.446,38.060 44.583 C 38.008 44.721,37.860 44.833,37.732 44.833 C 37.604 44.833,37.500 44.905,37.500 44.992 C 37.500 45.199,36.699 46.000,36.492 46.000 C 36.405 46.000,36.333 46.072,36.333 46.159 C 36.333 46.366,35.532 47.167,35.326 47.167 C 35.238 47.167,35.167 47.279,35.167 47.417 C 35.167 47.554,35.073 47.668,34.958 47.671 C 34.844 47.673,34.193 48.198,33.512 48.837 C 32.084 50.177,31.999 50.199,31.261 49.417 C 30.695 48.816,30.500 48.710,30.500 49.000 C 30.500 49.251,31.800 50.500,32.061 50.500 C 32.187 50.500,32.794 50.012,33.410 49.417 C 34.027 48.821,34.637 48.333,34.766 48.333 C 34.895 48.333,35.000 48.261,35.000 48.173 C 35.000 47.913,38.157 44.833,38.423 44.833 C 38.557 44.833,38.667 44.721,38.667 44.583 C 38.667 44.446,38.779 44.333,38.917 44.333 C 39.054 44.333,39.168 44.240,39.170 44.125 C 39.173 43.871,39.892 43.167,40.148 43.167 C 40.250 43.167,40.333 43.071,40.333 42.955 C 40.333 42.703,42.233 40.833,42.489 40.833 C 42.587 40.833,42.667 40.721,42.667 40.583 C 42.667 40.446,42.770 40.333,42.897 40.333 C 43.024 40.333,43.167 40.183,43.215 40.000 C 43.263 39.817,43.422 39.667,43.568 39.667 C 43.714 39.667,43.833 39.554,43.833 39.417 C 43.833 39.279,43.903 39.167,43.988 39.167 C 44.074 39.167,44.505 38.792,44.947 38.334 C 45.389 37.876,45.811 37.501,45.886 37.501 C 45.961 37.500,46.416 37.106,46.899 36.625 C 47.382 36.144,48.684 34.866,49.794 33.786 L 51.812 31.821 52.902 31.851 C 53.725 31.874,54.060 31.957,54.272 32.191 C 54.426 32.361,54.634 32.502,54.734 32.504 C 54.835 32.507,55.067 32.825,55.250 33.213 C 55.567 33.882,55.586 33.894,55.635 33.468 C 55.664 33.222,55.570 32.884,55.427 32.718 C 54.470 31.609,54.601 31.666,53.042 31.680 C 52.240 31.687,51.490 31.731,51.375 31.777 M55.523 34.968 C 55.510 35.180,55.433 35.312,55.351 35.261 C 55.188 35.160,54.927 35.983,55.075 36.131 C 55.126 36.181,55.167 36.124,55.167 36.004 C 55.167 35.885,55.286 35.699,55.432 35.592 C 55.597 35.472,55.669 35.243,55.622 34.991 C 55.547 34.590,55.545 34.590,55.523 34.968 M166.667 37.083 C 166.667 37.221,166.742 37.333,166.833 37.333 C 167.085 37.333,168.333 38.634,168.333 38.896 C 168.333 39.023,168.446 39.219,168.583 39.333 C 168.757 39.478,168.833 39.861,168.833 40.592 C 168.833 41.304,168.753 41.723,168.583 41.893 C 168.446 42.030,168.333 42.226,168.333 42.328 C 168.333 42.490,167.532 43.323,166.762 43.962 C 166.621 44.078,166.280 44.219,166.003 44.274 C 165.726 44.330,165.500 44.478,165.500 44.604 C 165.500 44.792,164.770 44.833,161.417 44.833 L 157.333 44.833 157.333 40.833 L 157.333 36.833 162.000 36.833 C 166.037 36.833,166.667 36.867,166.667 37.083 M52.333 38.417 C 51.523 39.196,50.911 39.834,50.972 39.836 C 51.033 39.837,50.971 39.911,50.833 40.000 C 50.620 40.138,50.626 40.162,50.875 40.164 C 51.035 40.166,51.167 40.054,51.167 39.917 C 51.167 39.779,51.279 39.667,51.417 39.667 C 51.554 39.667,51.667 39.547,51.667 39.401 C 51.667 39.255,51.817 39.096,52.000 39.048 C 52.183 39.000,52.333 38.857,52.333 38.731 C 52.333 38.604,52.446 38.500,52.583 38.500 C 52.721 38.500,52.833 38.387,52.833 38.250 C 52.833 38.112,52.941 38.000,53.072 38.000 C 53.203 38.000,53.358 37.850,53.417 37.667 C 53.475 37.483,53.630 37.333,53.761 37.333 C 53.893 37.333,54.000 37.258,54.000 37.167 C 54.000 36.854,53.806 37.000,52.333 38.417 M49.861 40.767 C 49.555 41.078,49.405 41.332,49.528 41.330 C 49.806 41.327,50.549 40.559,50.473 40.353 C 50.442 40.269,50.167 40.455,49.861 40.767 M19.378 41.167 C 19.221 41.350,19.001 41.500,18.890 41.500 C 18.455 41.500,18.364 44.680,18.796 44.766 C 18.913 44.789,18.931 44.770,18.837 44.724 C 18.474 44.543,18.640 42.280,19.045 41.903 C 20.034 40.979,21.651 40.675,22.272 41.296 C 22.401 41.425,22.611 41.546,22.738 41.564 C 22.865 41.583,23.317 41.951,23.742 42.383 C 24.168 42.814,24.587 43.167,24.674 43.167 C 24.762 43.167,24.833 43.277,24.833 43.411 C 24.833 43.545,24.985 43.736,25.171 43.836 C 25.357 43.935,25.465 44.088,25.411 44.175 C 25.358 44.262,25.395 44.333,25.494 44.333 C 25.593 44.333,26.302 44.971,27.069 45.750 C 27.836 46.529,28.547 47.167,28.649 47.167 C 28.750 47.167,28.833 47.238,28.833 47.326 C 28.833 47.522,29.629 48.333,29.821 48.333 C 29.898 48.333,30.005 48.501,30.058 48.705 C 30.132 48.988,30.202 49.031,30.349 48.884 C 30.524 48.710,24.307 42.290,22.864 41.155 C 22.255 40.676,19.791 40.684,19.378 41.167 M49.000 41.672 C 49.000 41.766,48.871 41.893,48.713 41.954 C 48.555 42.014,48.202 42.293,47.927 42.574 C 47.652 42.854,47.373 43.066,47.307 43.045 C 47.241 43.024,47.140 43.155,47.082 43.337 C 47.025 43.518,46.908 43.667,46.823 43.667 C 46.738 43.667,46.285 44.042,45.817 44.500 C 45.349 44.958,45.051 45.333,45.155 45.333 C 45.259 45.333,45.387 45.221,45.440 45.083 C 45.492 44.946,45.632 44.833,45.750 44.833 C 45.868 44.833,46.008 44.720,46.061 44.581 C 46.115 44.442,46.348 44.256,46.579 44.168 C 46.811 44.080,47.000 43.936,47.000 43.849 C 47.000 43.761,47.150 43.642,47.333 43.583 C 47.517 43.525,47.667 43.370,47.667 43.239 C 47.667 43.107,47.779 43.000,47.917 43.000 C 48.054 43.000,48.167 42.887,48.167 42.750 C 48.167 42.612,48.260 42.499,48.375 42.497 C 48.583 42.494,49.333 41.793,49.333 41.602 C 49.333 41.546,49.258 41.500,49.167 41.500 C 49.075 41.500,49.000 41.577,49.000 41.672 M44.667 45.639 C 44.667 45.746,44.554 45.833,44.417 45.833 C 44.279 45.833,44.167 45.946,44.167 46.083 C 44.167 46.221,44.079 46.333,43.972 46.333 C 43.865 46.333,43.827 46.382,43.886 46.442 C 43.946 46.502,44.195 46.351,44.439 46.106 C 44.684 45.862,44.835 45.613,44.775 45.553 C 44.716 45.493,44.667 45.532,44.667 45.639 M43.095 47.095 C 42.798 47.392,42.752 47.667,43.000 47.667 C 43.092 47.667,43.167 47.581,43.167 47.477 C 43.167 47.372,43.298 47.187,43.458 47.065 C 43.619 46.944,43.662 46.842,43.554 46.839 C 43.446 46.836,43.239 46.951,43.095 47.095 M41.355 48.838 C 41.057 49.110,40.889 49.333,40.981 49.333 C 41.196 49.333,42.078 48.522,41.975 48.419 C 41.933 48.377,41.654 48.565,41.355 48.838 M40.458 49.782 C 40.298 49.823,40.167 49.965,40.167 50.096 C 40.167 50.226,40.079 50.333,39.972 50.333 C 39.865 50.333,39.827 50.382,39.886 50.442 C 39.946 50.502,40.194 50.352,40.437 50.109 C 40.680 49.866,40.850 49.675,40.814 49.686 C 40.779 49.697,40.619 49.740,40.458 49.782 M38.654 51.468 C 38.148 51.899,37.497 52.496,37.206 52.793 C 36.916 53.090,36.641 53.333,36.597 53.333 C 36.437 53.333,35.704 54.148,35.787 54.232 C 35.834 54.279,35.676 54.366,35.436 54.427 C 35.196 54.487,35.000 54.607,35.000 54.693 C 35.000 54.829,34.676 55.159,33.864 55.848 C 33.743 55.950,33.681 56.070,33.725 56.114 C 33.769 56.158,33.962 56.038,34.153 55.847 C 34.344 55.656,34.567 55.500,34.650 55.500 C 34.732 55.500,35.183 55.125,35.651 54.667 C 36.119 54.208,36.576 53.833,36.668 53.833 C 36.759 53.833,36.833 53.721,36.833 53.583 C 36.833 53.446,36.946 53.333,37.083 53.333 C 37.221 53.333,37.333 53.221,37.333 53.083 C 37.333 52.946,37.453 52.833,37.599 52.833 C 37.745 52.833,37.904 52.683,37.952 52.500 C 38.000 52.317,38.143 52.167,38.269 52.167 C 38.396 52.167,38.500 52.054,38.500 51.917 C 38.500 51.779,38.585 51.667,38.689 51.667 C 38.887 51.667,39.727 50.838,39.629 50.740 C 39.598 50.709,39.159 51.037,38.654 51.468 M33.083 56.500 C 32.830 56.780,32.822 56.833,33.038 56.833 C 33.179 56.833,33.334 56.683,33.382 56.500 C 33.430 56.317,33.450 56.167,33.427 56.167 C 33.404 56.167,33.249 56.317,33.083 56.500 M8.686 60.030 C 8.662 60.373,9.099 60.833,9.449 60.833 C 9.660 60.833,9.669 60.787,9.500 60.583 C 9.386 60.446,9.195 60.333,9.075 60.333 C 8.956 60.333,8.823 60.202,8.782 60.042 C 8.714 59.782,8.703 59.781,8.686 60.030 M64.972 60.285 C 64.437 60.367,64.181 60.833,64.672 60.833 C 64.852 60.833,65.000 60.758,65.000 60.667 C 65.000 60.575,65.112 60.500,65.250 60.500 C 65.387 60.500,65.500 60.425,65.500 60.333 C 65.500 60.242,65.481 60.178,65.458 60.192 C 65.435 60.205,65.217 60.247,64.972 60.285 M70.107 62.332 C 69.806 62.637,69.807 62.642,70.149 62.553 C 70.342 62.502,70.500 62.357,70.500 62.231 C 70.500 61.945,70.488 61.948,70.107 62.332 M69.625 63.019 C 69.465 63.109,69.333 63.315,69.333 63.475 C 69.333 63.635,69.243 63.857,69.133 63.967 C 68.978 64.122,68.978 64.167,69.133 64.167 C 69.243 64.167,69.333 64.095,69.333 64.006 C 69.333 63.918,69.491 63.699,69.685 63.519 C 70.104 63.128,70.062 62.772,69.625 63.019 M68.250 64.602 C 67.924 64.854,67.925 64.858,68.320 64.805 C 68.542 64.775,68.755 64.656,68.793 64.542 C 68.885 64.262,68.657 64.287,68.250 64.602 M65.334 65.583 C 65.152 65.802,61.723 65.838,36.855 65.875 L 8.583 65.918 36.864 65.959 C 64.360 65.999,66.000 65.973,66.000 65.504 C 66.000 65.248,65.570 65.299,65.334 65.583 " stroke="none" fill="#04acd4" fill-rule="evenodd"></path></g></svg>